<svg width="789" height="937" viewBox="0 0 789 937" fill="none" xmlns="http://www.w3.org/2000/svg">
<path d="M83.8979 842.184C58.5791 830.746 28.6179 825.723 0.0889907 826.258C-7.64506 826.374 -15.3542 827.042 -22.958 828.256C-24.5055 828.509 -25.1804 826.469 -23.6165 826.216C4.97827 821.545 35.8284 824.514 63.2708 832.42C70.8012 834.564 78.1176 837.222 85.149 840.369C86.5483 841.002 85.3137 842.831 83.8979 842.184Z" fill="#37474F"/>
<path d="M40.7344 828.762C29.8365 823.514 18.4117 819.027 6.34498 817.015C-5.72179 815.003 -18.4965 815.608 -29.6907 820.293C-32.6704 821.531 -35.9299 823.641 -35.8476 826.694C-35.7593 827.811 -35.2829 828.881 -34.4794 829.766C-33.6758 830.65 -32.5817 831.31 -31.337 831.66C-28.9401 832.23 -26.4211 832.317 -23.9784 831.913C-3.89451 829.789 16.2223 825.048 36.2732 827.454" fill="#37474F"/>
<path d="M75.4694 813.934C65.9149 803.265 54.3418 794.036 41.2281 786.627C27.8959 778.826 13.3865 772.607 -1.9028 768.141C-9.7112 765.842 -17.7515 764.166 -25.9211 763.132C-27.5673 762.935 -26.8101 760.909 -25.2626 761.092C-9.83049 763.162 5.13469 767.257 19.1029 773.233C33.8712 779.277 47.5839 787.047 59.8468 796.32C66.4285 801.297 72.3969 806.836 77.6589 812.851C78.5972 813.948 76.4571 814.989 75.5188 813.92L75.4694 813.934Z" fill="#37474F"/>
<path d="M38.7917 787.33C32.3713 769.977 19.8309 754.744 2.88776 743.717C0.993481 742.464 -1.06765 741.406 -3.25265 740.566C-7.86206 738.906 -12.4714 742.958 -10.8417 747.305C-10.0843 749.305 -8.83225 751.143 -7.1706 752.693C-3.63124 756.027 1.06047 757.955 5.5711 760.135C18.6586 766.604 29.9036 775.475 38.4954 786.106" fill="#37474F"/>
<path d="M41.5739 787.949L-15.8462 804.198C-18.0679 805.006 -20.4849 805.344 -22.892 805.183C-24.124 805.034 -25.268 804.553 -26.1567 803.809C-27.0453 803.064 -27.6319 802.096 -27.8306 801.047C-28.094 798.641 -25.9704 796.615 -23.8138 795.279C-19.0782 792.573 -13.7633 790.694 -8.17478 789.75C7.77931 786.426 24.3097 785.62 40.6026 787.372" fill="#37474F"/>
<path d="M-56.5901 757.125C-56.3213 756.099 -55.7684 755.143 -54.9778 754.337C-54.1872 753.532 -53.1819 752.901 -52.0465 752.496C-49.8417 751.783 -47.4856 751.476 -45.1324 751.596C-21.4928 751.764 0.665339 762.147 20.4199 774.26L25.5397 778.762C3.00299 768.478 -24.5547 774.345 -48.1121 766.269C-50.3971 765.598 -52.4859 764.513 -54.236 763.09C-55.1436 762.32 -55.8288 761.38 -56.2374 760.345C-56.646 759.309 -56.7668 758.207 -56.5901 757.125Z" fill="#37474F"/>
<path d="M69.971 796.32C73.1391 783.81 77.972 771.65 84.3754 760.079C90.6712 748.302 98.2439 737.054 106.994 726.483C111.154 721.448 115.72 716.667 120.658 712.176C121.761 711.191 123.506 712.682 122.403 713.667C113.244 722.132 105.246 731.464 98.5658 741.481C90.7315 752.738 84.1612 764.604 78.9429 776.919C76.1998 783.433 73.9994 790.104 72.3581 796.883C72.0453 798.219 69.6582 797.657 69.971 796.32Z" fill="#37474F"/>
<path d="M146.636 1013.26C142.915 1005.37 139.59 997.332 136.347 989.341C132.001 978.508 127.852 967.619 123.803 956.702C118.996 943.712 114.309 930.694 109.744 917.648C104.684 903.241 99.7458 888.812 94.9278 874.359C89.8685 859.286 84.9298 844.191 80.1119 829.072C75.294 813.953 70.5968 798.946 66.0203 784.052C61.7072 769.862 57.5093 755.643 53.4267 741.396C49.838 728.734 46.348 716.073 43.0885 703.411C40.4381 693.07 37.9193 682.702 35.7628 672.277C34.2483 664.919 32.8161 657.519 32.1576 650.077C32.0423 648.811 31.9601 647.53 31.9271 646.264C31.9271 645.984 32.0572 645.716 32.2888 645.518C32.5203 645.32 32.8343 645.209 33.1618 645.209C33.4893 645.209 33.8032 645.32 34.0348 645.518C34.2663 645.716 34.3965 645.984 34.3965 646.264C34.733 652.82 35.591 659.349 36.9646 665.805C38.8248 675.569 41.0801 685.262 43.4671 694.927C46.5126 707.167 49.7885 719.365 53.1798 731.506C57.0868 745.462 61.131 759.385 65.3124 773.276C69.7682 788.132 74.3501 802.96 79.0583 817.76C83.8543 832.926 88.76 848.074 93.7755 863.202C98.6373 877.88 103.603 892.53 108.674 907.152C113.316 920.546 118.063 933.906 122.914 947.234C127.111 958.742 131.408 970.208 135.902 981.632C139.343 990.396 142.882 999.147 146.751 1007.8C147.492 1009.46 148.249 1011.13 149.023 1012.78C149.615 1014.05 147.228 1014.59 146.652 1013.34L146.636 1013.26Z" fill="#37474F"/>
<path d="M56.6697 752.159C30.6107 741.015 6.65509 726.594 -14.3975 709.376C-20.3206 704.584 -25.9473 699.531 -31.2548 694.238C-32.2919 693.211 -30.5469 691.72 -29.5098 692.747C-10.2796 711.556 12.2578 727.693 37.2937 740.58C43.9883 744.088 50.853 747.338 57.8879 750.33C59.3201 750.935 58.0689 752.75 56.6367 752.145L56.6697 752.159Z" fill="#37474F"/>
<path d="M-88.6913 727.792C-88.6791 726.48 -88.2379 725.197 -87.4175 724.088C-86.5972 722.98 -85.4304 722.089 -84.0489 721.517C-81.3731 720.535 -78.4821 720.056 -75.5709 720.11L0.253815 717.184L-1.54056 717.536C-23.9569 729.739 -50.2614 735.678 -76.8056 734.53C-79.3793 734.513 -81.9199 734.034 -84.263 733.124C-85.4644 732.623 -86.4994 731.872 -87.2731 730.94C-88.0468 730.009 -88.5345 728.926 -88.6913 727.792Z" fill="#37474F"/>
<path d="M-4.52028 689.764C-5.65696 687.336 -6.21658 684.739 -6.1665 682.125C-5.95249 679.508 -4.27334 676.821 -1.57354 676.09C-0.427033 675.855 0.772017 675.888 1.89845 676.185C3.02488 676.482 4.03735 677.032 4.83022 677.778C6.49703 679.34 7.7791 681.172 8.60007 683.166C15.8105 698.163 15.399 715.383 20.6504 731.084L22.774 735.417C11.0878 721.435 1.88985 706.05 -4.52028 689.764Z" fill="#37474F"/>
<path d="M99.0103 880.732C119.182 864.672 136.389 846.092 150.043 825.625C153.994 819.725 157.649 813.704 161.007 807.561C161.682 806.337 163.805 807.406 163.13 808.63C151.375 830.219 135.93 850.194 117.3 867.901C112.032 872.881 106.512 877.655 100.739 882.223C99.5865 883.151 97.825 881.66 98.9939 880.732H99.0103Z" fill="#37474F"/>
<path d="M228.222 825.315C227.84 824.07 227.039 822.948 225.918 822.088C224.797 821.228 223.406 820.667 221.917 820.476C219.026 820.231 216.107 820.519 213.357 821.32L139.59 837.991L141.417 837.85C166.935 843.821 194.004 842.778 218.789 834.868C221.284 834.201 223.592 833.105 225.571 831.646C226.585 830.856 227.356 829.866 227.818 828.762C228.28 827.659 228.419 826.475 228.222 825.315Z" fill="#37474F"/>
<path d="M148.924 832.082C164.629 814.806 179.593 794.589 185.14 767.24C185.865 763.709 185.14 759.01 181.947 757.125C179.741 755.844 176.695 756.646 174.802 758.321C173.031 760.164 171.75 762.314 171.049 764.623C162.307 786.936 153.385 808.447 148.397 831.731" fill="#37474F"/>
<path d="M136.132 811.12C136.511 808.515 136.287 805.872 135.474 803.34C134.486 800.892 132.099 798.74 129.284 798.726C128.091 798.805 126.942 799.148 125.95 799.72C124.957 800.292 124.155 801.074 123.621 801.99C122.481 803.906 121.787 805.994 121.58 808.137C119.078 824.415 124.543 840.861 124.132 857.293L123.358 862.006C130.442 845.654 134.744 828.517 136.132 811.12Z" fill="#37474F"/>
<path d="M-4.24035 646.236C-4.60252 644.083 -4.3227 641.565 -2.47894 640.243C0.517177 638.09 4.73149 640.651 7.39836 643.169C21.7077 656.927 32.7552 672.928 39.9276 690.285L40.2075 693.394C25.7335 683.64 13.0633 672.077 2.62435 659.095C-0.421156 655.226 -3.45017 651.033 -4.24035 646.236Z" fill="#37474F"/>
<path d="M31.565 657.181C27.9598 640.665 26.33 623.515 29.82 606.985C30.3216 603.923 31.4353 600.959 33.1124 598.22C33.8947 596.906 35.0175 595.761 36.3954 594.874C37.7732 593.986 39.3698 593.379 41.0636 593.099C45.8706 592.592 50.3812 596.081 52.1591 600.274C53.937 604.466 53.5584 609.179 52.7353 613.625C49.6404 630.507 40.8661 646.095 32.0259 661.177" fill="#37474F"/>
<path d="M47.7306 708.926C55.0813 695.828 64.3287 683.572 75.2554 672.446C76.4854 671.047 78.0026 669.85 79.7331 668.915C80.5724 668.46 81.5387 668.206 82.5317 668.179C83.5246 668.152 84.5079 668.352 85.3796 668.76C86.3855 669.458 87.1424 670.383 87.5644 671.429C87.9863 672.476 88.0564 673.603 87.7666 674.683C87.1698 676.842 86.048 678.869 84.4742 680.634C74.4796 693.255 61.6002 704.018 46.6112 712.274" fill="#37474F"/>
<path d="M89.0836 749.795C83.8181 734.725 82.0674 718.917 83.931 703.27C83.9767 701.312 84.5395 699.389 85.5772 697.643C86.0535 696.824 86.8461 696.171 87.8211 695.794C88.796 695.417 89.8933 695.34 90.9274 695.575C93.2815 696.391 94.0058 699.12 94.3021 701.455C96.2414 716.987 94.3687 732.694 88.8038 747.572" fill="#37474F"/>
<path d="M108.345 722.896C120.214 701.863 145.878 688.329 171.312 689.666C174.885 689.849 179.214 690.89 180.136 694.125C181.058 697.361 177.733 700.33 174.605 702.046C155.377 712.485 129.449 710.487 112.855 724.26" fill="#37474F"/>
<path d="M91.6354 748.768C102.264 743.768 114.44 741.694 126.5 742.83C138.56 743.965 149.915 748.255 159.015 755.113C162.192 757.519 165.386 761.345 163.608 764.792C163.072 765.717 162.254 766.5 161.239 767.06C160.225 767.619 159.053 767.934 157.846 767.972C155.49 767.967 153.156 767.585 150.965 766.846L89.4295 749.612" fill="#37474F"/>
<path d="M121.201 949.189C112.122 939.909 101.802 931.57 90.4501 924.344C79.3934 917.133 67.5004 910.91 54.9576 905.774C48.7937 903.248 42.3954 901.163 35.8286 899.541C35.6719 899.504 35.5252 899.441 35.3969 899.356C35.2686 899.27 35.1614 899.164 35.0811 899.043C35.0008 898.923 34.9492 898.789 34.9292 898.652C34.9091 898.514 34.9211 898.374 34.9643 898.24C35.0075 898.106 35.0812 897.981 35.1812 897.871C35.2811 897.761 35.4053 897.67 35.5467 897.601C35.6881 897.532 35.8439 897.488 36.0053 897.471C36.1666 897.454 36.3303 897.464 36.4871 897.501C48.793 900.69 60.5628 905.23 71.5021 911.007C83.9888 917.289 95.6935 924.643 106.435 932.954C112.331 937.523 117.833 942.451 122.897 947.698C123.901 948.739 122.156 950.244 121.152 949.189H121.201Z" fill="#37474F"/>
<path d="M82.7292 917.605C79.5191 902.302 72.7454 887.706 62.8099 874.682C61.7567 873.041 60.2613 871.637 58.4475 870.588C57.5534 870.102 56.4877 869.901 55.4371 870.019C54.3866 870.137 53.4184 870.568 52.7022 871.235C51.056 873.022 51.8791 875.737 52.8339 877.904C59.2706 892.31 70.1685 907.307 82.7292 917.605Z" fill="#37474F"/>
<path d="M-16.9986 902.453C4.48451 889.651 35.4169 890.917 56.8013 903.86L53.5088 905.267C31.7952 900.807 8.81403 915.115 -13.4264 914.735C-17.048 914.735 -21.4763 913.652 -22.3982 910.374C-23.3201 907.096 -20.0112 904.254 -16.9986 902.453Z" fill="#37474F"/>
<path d="M81.0831 916.086C57.2129 916.803 34.4951 931.688 25.6714 952.411C24.1569 955.956 23.3832 960.754 26.7414 962.949C27.7284 963.511 28.8817 963.823 30.0677 963.848C31.2536 963.873 32.4235 963.61 33.4416 963.089C35.5095 961.995 37.337 960.6 38.8411 958.967C53.6571 944.575 67.864 931.983 82.7458 917.605" fill="#37474F"/>
<path d="M51.4511 832.912C32.989 840.915 16.0813 851.302 1.32377 863.708C-0.454144 865.2 -2.42957 866.804 -4.81659 866.832C-8.24072 866.832 -10.7594 863.357 -10.529 860.163C-10.0596 857.051 -8.41185 854.156 -5.83723 851.919C1.5226 845.026 10.8896 839.924 21.3089 837.133C31.4166 834.192 41.9689 832.912 52.4717 831.505" fill="#37474F"/>
<path d="M193.762 872.685C189.927 858.551 181.851 844.839 171.95 833.665C169.278 830.625 166.385 827.791 163.301 825.192C162.671 824.666 163.29 823.674 163.926 824.208C175.568 833.944 184.8 847.282 190.823 861.012C192.486 864.771 193.863 868.626 194.941 872.54C195.152 873.322 193.973 873.478 193.762 872.685Z" fill="#37474F"/>
<path d="M184.698 850.741C183.182 844.542 181.172 838.403 177.915 832.884C174.657 827.366 170.072 822.492 164.327 819.692C162.802 818.943 160.819 818.392 159.578 819.505C159.143 819.936 158.86 820.505 158.765 821.138C158.67 821.771 158.767 822.44 159.044 823.06C159.62 824.217 160.438 825.251 161.435 826.081C169.131 833.328 177.926 839.663 183.728 848.501" fill="#37474F"/>
<path d="M202.645 859.326C203.838 851.744 203.749 843.867 202.38 836.02C201.1 827.948 198.762 819.967 195.432 812.296C193.738 808.372 191.708 804.576 189.366 800.957C188.889 800.231 189.988 799.815 190.437 800.497C194.812 807.376 198.187 814.787 200.441 822.466C202.939 830.488 204.361 838.701 204.667 846.868C204.831 851.251 204.553 855.59 203.838 859.815C203.7 860.577 202.542 860.093 202.668 859.341L202.645 859.326Z" fill="#37474F"/>
<path d="M201.261 835.299C206.296 826.598 208.373 816.21 207.209 805.558C207.087 804.36 206.828 803.164 206.436 801.996C205.562 799.573 202.314 799.171 201.06 801.359C200.486 802.369 200.147 803.519 200.066 804.729C199.881 807.319 200.671 809.871 201.295 812.439C203.046 819.942 203.174 827.561 201.669 834.747" fill="#37474F"/>
<path d="M201.947 836.626L175.714 819.508C174.624 818.909 173.664 818.066 172.914 817.05C172.558 816.507 172.37 815.881 172.378 815.263C172.386 814.646 172.589 814.07 172.958 813.619C173.869 812.662 175.431 812.791 176.718 813.177C179.45 814.105 182.034 815.557 184.322 817.449C191.116 822.626 197.059 828.925 201.858 836.035" fill="#37474F"/>
<path d="M181.459 786.614C181.976 786.358 182.561 786.24 183.164 786.27C183.767 786.299 184.371 786.476 184.924 786.785C185.968 787.411 186.895 788.241 187.644 789.22C195.593 798.696 198.794 811.198 200.461 823.354L200.327 826.987C196.956 814.37 185.169 805.47 180.534 793.228C180.038 792.081 179.78 790.865 179.778 789.664C179.79 789.03 179.948 788.424 180.24 787.895C180.532 787.365 180.949 786.927 181.459 786.614Z" fill="#37474F"/>
<path d="M208.101 850.9C214.376 847.733 221.07 845.354 228.052 843.808C235.083 842.146 242.328 841.18 249.69 840.923C253.194 840.797 256.73 840.923 260.273 841.3C261.056 841.391 261.028 842.614 260.245 842.523C253.619 841.872 247.027 841.99 240.597 842.875C233.26 843.74 226.099 845.324 219.209 847.606C215.571 848.819 212.052 850.304 208.677 852.05C208.016 852.399 207.44 851.249 208.101 850.9Z" fill="#37474F"/>
<path d="M143.935 958.239C145.954 953.963 148.165 949.794 150.386 945.673C153.414 940.107 156.533 934.6 159.698 929.122C163.466 922.608 167.288 916.133 171.162 909.696C175.434 902.58 179.756 895.505 184.13 888.469C188.678 881.118 193.278 873.806 197.928 866.535C202.578 859.263 207.222 852.08 211.86 844.984C216.296 838.242 220.782 831.536 225.319 824.866C229.364 818.954 233.444 813.082 237.601 807.301C241 802.584 244.455 797.91 248.057 793.361C250.602 790.153 253.192 786.962 256.062 784.065C256.549 783.571 257.053 783.085 257.568 782.624C257.685 782.525 257.84 782.481 258.001 782.504C258.162 782.526 258.315 782.611 258.426 782.742C258.537 782.872 258.597 783.037 258.594 783.199C258.59 783.361 258.522 783.508 258.406 783.607C255.795 786.062 253.372 788.715 251.155 791.548C247.727 795.746 244.463 800.076 241.256 804.448C237.201 809.994 233.242 815.618 229.346 821.267C224.87 827.764 220.455 834.304 216.1 840.887C211.436 847.921 206.827 854.996 202.272 862.111C197.595 869.39 192.963 876.707 188.376 884.06C183.924 891.193 179.519 898.358 175.161 905.554C171.169 912.145 167.226 918.765 163.332 925.416C159.972 931.162 156.664 936.932 153.44 942.767C150.964 947.24 148.527 951.748 146.243 956.352C145.804 957.235 145.365 958.129 144.944 959.02C144.618 959.704 143.581 958.948 143.906 958.275L143.935 958.239Z" fill="#37474F"/>
<path d="M221.945 829.968C217.737 815.643 215.605 800.996 215.62 786.515C215.602 782.46 215.794 778.43 216.193 774.442C216.268 773.665 217.48 773.832 217.405 774.609C216.111 788.927 217.049 803.617 220.185 818.151C220.998 822.06 221.976 825.945 223.119 829.806C223.353 830.591 222.174 830.735 221.94 829.95L221.945 829.968Z" fill="#37474F"/>
<path d="M182.761 763.443C183.311 762.984 183.994 762.705 184.733 762.64C185.472 762.574 186.238 762.723 186.944 763.071C188.26 763.789 189.44 764.771 190.405 765.95L217.345 795.115L216.59 794.525C203.913 789.917 192.52 781.542 183.992 770.563C183.127 769.532 182.464 768.35 182.047 767.095C181.848 766.439 181.809 765.761 181.934 765.123C182.058 764.485 182.343 763.907 182.761 763.443Z" fill="#37474F"/>
<path d="M215.336 789.381C213.724 776.885 213.283 763.277 219.076 749.11C219.823 747.286 221.508 745.319 223.462 745.375C224.113 745.46 224.739 745.77 225.237 746.25C225.735 746.731 226.073 747.354 226.195 748.014C226.414 749.38 226.326 750.744 225.937 752.001C223.042 764.807 220.499 777.223 215.687 789.343" fill="#37474F"/>
<path d="M227.122 783.506C227.746 782.194 228.636 781.052 229.739 780.146C230.9 779.305 232.586 779.023 233.806 779.839C234.293 780.213 234.686 780.702 234.944 781.256C235.203 781.81 235.318 782.408 235.277 782.987C235.193 784.204 234.866 785.364 234.316 786.396C230.528 794.578 223.231 800.51 218.486 808.16L217.406 810.54C219.253 800.935 222.528 791.825 227.122 783.506Z" fill="#37474F"/>
<path d="M182.865 892.351C196.384 894.7 209.944 894.976 223.084 893.168C226.876 892.654 230.619 891.977 234.312 891.14C235.05 890.976 235.326 892.2 234.588 892.365C221.626 895.326 208.083 896.245 194.403 895.093C190.546 894.758 186.689 894.25 182.832 893.567C182.055 893.437 182.077 892.208 182.86 892.344L182.865 892.351Z" fill="#37474F"/>
<path d="M249.734 924.198C250.122 923.605 250.317 922.889 250.294 922.138C250.271 921.387 250.033 920.635 249.607 919.974C248.728 918.736 247.618 917.675 246.352 916.863L214.397 893.383L215.076 894.061C221.251 906.339 230.867 916.751 242.563 923.823C243.687 924.581 244.926 925.112 246.203 925.384C246.876 925.508 247.549 925.465 248.164 925.258C248.78 925.051 249.319 924.687 249.734 924.198Z" fill="#37474F"/>
<path d="M220.02 895.009C232.529 895.148 246.009 893.951 259.259 886.478C260.973 885.517 262.68 883.565 262.38 881.625C262.164 880.293 260.798 879.364 259.459 879.203C258.092 879.15 256.764 879.401 255.566 879.939C243.326 884.357 231.358 888.418 219.988 894.675" fill="#37474F"/>
<path d="M224.394 882.493C225.605 881.721 226.628 880.696 227.405 879.476C228.087 878.216 228.172 876.503 227.223 875.377C226.785 874.93 226.253 874.594 225.678 874.401C225.104 874.208 224.507 874.165 223.945 874.277C222.761 874.501 221.658 874.964 220.697 875.64C213.082 880.406 208.1 888.406 201.13 894.059L198.909 895.42C208.109 892.452 216.692 888.099 224.394 882.493Z" fill="#37474F"/>
<path d="M245.311 768.208C246.083 767.302 247.224 766.521 248.399 766.788C250.311 767.219 250.676 769.804 250.534 771.758C249.67 782.328 246.766 792.393 241.985 801.395L240.787 802.607C239.931 793.389 240.439 784.249 242.295 775.494C242.87 772.912 243.585 770.221 245.311 768.208Z" fill="#37474F"/>
<path d="M252.908 786.344C258.55 779.061 265.126 772.34 273.181 767.878C274.624 766.994 276.234 766.388 277.941 766.087C278.753 765.933 279.609 765.975 280.446 766.21C281.282 766.444 282.076 766.865 282.767 767.441C284.608 769.176 284.688 772.208 283.549 774.4C282.409 776.593 280.322 778.11 278.195 779.357C270.127 784.101 260.671 786.124 251.403 787.942" fill="#37474F"/>
<path d="M236.883 811.102C244.821 809.393 253.053 808.737 261.384 809.15C262.383 809.145 263.395 809.326 264.371 809.684C264.845 809.857 265.278 810.152 265.626 810.538C265.975 810.924 266.225 811.387 266.351 811.878C266.402 812.526 266.275 813.155 265.983 813.693C265.691 814.232 265.246 814.659 264.699 814.926C263.599 815.452 262.376 815.723 261.108 815.721C252.472 816.209 243.629 814.889 235.112 811.842" fill="#37474F"/>
<path d="M233.924 842.042C238.402 834.61 244.379 828.316 251.515 823.519C252.344 822.844 253.335 822.387 254.412 822.182C254.914 822.082 255.455 822.167 255.942 822.421C256.43 822.676 256.834 823.086 257.087 823.581C257.547 824.808 256.658 826.062 255.788 827.007C249.989 833.278 242.825 838.093 234.753 841.144" fill="#37474F"/>
<path d="M251.639 840.191C264.408 837.472 278.74 842.903 286.813 853.507C287.949 854.995 288.985 857.088 287.953 858.601C286.92 860.113 284.558 859.84 282.784 859.201C271.922 855.239 263.957 844.204 252.602 842.471" fill="#37474F"/>
<path d="M235.217 842.695C240.901 845.158 245.893 849.274 249.512 854.48C253.131 859.685 255.201 865.727 255.437 871.779C255.515 873.896 255.008 876.523 252.972 877.035C252.406 877.149 251.803 877.1 251.226 876.895C250.649 876.689 250.12 876.333 249.696 875.866C248.898 874.926 248.265 873.861 247.829 872.727L234.117 842.115" fill="#37474F"/>
<path d="M161.938 925.426C162.715 918.524 162.68 911.461 161.833 904.381C161.08 897.425 159.632 890.484 157.512 883.67C156.47 880.321 155.166 877.034 153.613 873.844C153.575 873.769 153.552 873.688 153.544 873.607C153.536 873.525 153.543 873.445 153.566 873.37C153.589 873.296 153.627 873.228 153.678 873.171C153.728 873.114 153.79 873.07 153.861 873.039C153.931 873.009 154.008 872.994 154.088 872.995C154.167 872.996 154.247 873.013 154.324 873.045C154.4 873.077 154.472 873.124 154.533 873.182C154.595 873.24 154.647 873.309 154.684 873.384C157.533 879.415 159.639 885.71 160.949 892.113C162.574 899.31 163.488 906.576 163.677 913.796C163.778 917.762 163.596 921.698 163.133 925.573C163.041 926.342 161.823 926.18 161.921 925.406L161.938 925.426Z" fill="#37474F"/>
<path d="M162.015 898.92C167.287 892.224 171.056 884.359 173.099 875.79C173.424 874.79 173.5 873.697 173.321 872.603C173.22 872.075 172.942 871.579 172.537 871.203C172.131 870.826 171.624 870.593 171.103 870.544C169.802 870.521 168.953 871.81 168.376 872.957C164.571 880.621 162.035 890.272 162.015 898.92Z" fill="#37474F"/>
<path d="M134.481 853.834C147.091 857.859 157.058 870.627 158.932 883.727L157.231 882.914C151.718 872.686 137.975 868.598 130.588 859.605C129.359 858.163 128.307 856.015 129.357 854.488C130.407 852.96 132.711 853.272 134.481 853.834Z" fill="#37474F"/>
<path d="M162.088 897.727C153.692 888.473 139.798 884.694 128.191 888.516C126.204 889.168 123.947 890.558 124.174 892.673C124.275 893.265 124.537 893.835 124.929 894.316C125.321 894.797 125.827 895.17 126.388 895.391C127.545 895.828 128.745 896.062 129.934 896.083C140.942 896.889 150.996 898.09 162.021 898.927" fill="#37474F"/>
<path d="M186.608 856.478C177.019 851.958 166.965 848.901 156.802 847.415C155.579 847.235 154.242 847.016 153.421 846.075C152.259 844.711 152.849 842.478 154.255 841.439C155.708 840.524 157.47 840.155 159.273 840.389C164.635 840.88 169.934 842.805 174.628 845.967C179.28 848.952 183.392 852.702 187.539 856.387" fill="#37474F"/>
<path d="M375.469 942.934C365.915 932.265 354.342 923.036 341.228 915.627C327.896 907.826 313.387 901.607 298.097 897.141C290.289 894.842 282.248 893.166 274.079 892.132C272.433 891.935 273.19 889.909 274.737 890.092C290.17 892.162 305.135 896.257 319.103 902.233C333.871 908.277 347.584 916.047 359.847 925.32C366.428 930.297 372.397 935.836 377.659 941.851C378.597 942.948 376.457 943.989 375.519 942.92L375.469 942.934Z" fill="#37474F"/>
<path d="M338.792 916.33C332.371 898.977 319.831 883.744 302.888 872.717C300.993 871.464 298.932 870.406 296.747 869.566C292.138 867.906 287.529 871.958 289.158 876.305C289.916 878.305 291.168 880.143 292.829 881.693C296.369 885.027 301.06 886.955 305.571 889.135C318.659 895.604 329.904 904.475 338.495 915.106" fill="#37474F"/>
<path d="M341.574 916.949L284.154 933.198C281.932 934.006 279.515 934.344 277.108 934.183C275.876 934.034 274.732 933.553 273.843 932.809C272.955 932.064 272.368 931.096 272.169 930.047C271.906 927.641 274.03 925.615 276.186 924.279C280.922 921.573 286.237 919.694 291.825 918.75C307.779 915.426 324.31 914.62 340.603 916.372" fill="#37474F"/>
<path d="M243.41 886.125C243.679 885.099 244.232 884.143 245.022 883.337C245.813 882.532 246.818 881.901 247.953 881.496C250.158 880.783 252.514 880.476 254.868 880.596C278.507 880.764 300.665 891.147 320.42 903.26L325.54 907.762C303.003 897.478 275.445 903.345 251.888 895.269C249.603 894.598 247.514 893.513 245.764 892.09C244.856 891.32 244.171 890.38 243.763 889.345C243.354 888.309 243.233 887.207 243.41 886.125Z" fill="#37474F"/>
<path d="M369.971 925.32C373.139 912.81 377.972 900.65 384.375 889.079C390.671 877.302 398.244 866.054 406.994 855.483C411.154 850.448 415.72 845.667 420.658 841.176C421.761 840.191 423.506 841.682 422.403 842.667C413.244 851.132 405.246 860.464 398.566 870.481C390.731 881.738 384.161 893.604 378.943 905.919C376.2 912.433 373.999 919.104 372.358 925.883C372.045 927.219 369.658 926.657 369.971 925.32Z" fill="#37474F"/>
<path d="M446.636 1142.26C442.915 1134.37 439.59 1126.33 436.347 1118.34C432.001 1107.51 427.852 1096.62 423.803 1085.7C418.996 1072.71 414.309 1059.69 409.744 1046.65C404.684 1032.24 399.746 1017.81 394.928 1003.36C389.868 988.286 384.93 973.191 380.112 958.072C375.294 942.953 370.597 927.946 366.02 913.052C361.707 898.862 357.509 884.643 353.427 870.396C349.838 857.734 346.348 845.073 343.088 832.411C340.438 822.07 337.919 811.702 335.763 801.277C334.248 793.919 332.816 786.519 332.158 779.077C332.042 777.811 331.96 776.53 331.927 775.264C331.927 774.984 332.057 774.716 332.289 774.518C332.52 774.32 332.834 774.209 333.162 774.209C333.489 774.209 333.803 774.32 334.035 774.518C334.266 774.716 334.396 774.984 334.396 775.264C334.733 781.82 335.591 788.349 336.965 794.805C338.825 804.569 341.08 814.262 343.467 823.927C346.513 836.167 349.789 848.365 353.18 860.506C357.087 874.462 361.131 888.385 365.312 902.276C369.768 917.132 374.35 931.96 379.058 946.76C383.854 961.926 388.76 977.074 393.775 992.202C398.637 1006.88 403.603 1021.53 408.674 1036.15C413.316 1049.55 418.063 1062.91 422.914 1076.23C427.111 1087.74 431.408 1099.21 435.902 1110.63C439.343 1119.4 442.882 1128.15 446.751 1136.8C447.492 1138.46 448.249 1140.13 449.023 1141.78C449.615 1143.05 447.228 1143.59 446.652 1142.34L446.636 1142.26Z" fill="#37474F"/>
<path d="M356.67 881.159C330.611 870.015 306.655 855.594 285.602 838.376C279.679 833.584 274.053 828.531 268.745 823.238C267.708 822.211 269.453 820.72 270.49 821.747C289.72 840.556 312.258 856.693 337.294 869.58C343.988 873.088 350.853 876.338 357.888 879.33C359.32 879.935 358.069 881.75 356.637 881.145L356.67 881.159Z" fill="#37474F"/>
<path d="M211.309 856.792C211.321 855.48 211.762 854.197 212.582 853.088C213.403 851.98 214.57 851.089 215.951 850.517C218.627 849.535 221.518 849.056 224.429 849.11L300.254 846.184L298.459 846.536C276.043 858.739 249.739 864.678 223.194 863.53C220.621 863.513 218.08 863.034 215.737 862.124C214.536 861.623 213.501 860.872 212.727 859.94C211.953 859.009 211.466 857.926 211.309 856.792Z" fill="#37474F"/>
<path d="M289.422 842.174C269.239 829.583 248.892 814.037 235.459 789.136C233.73 785.928 232.956 781.243 235.459 778.584C236.389 777.779 237.616 777.273 238.932 777.15C240.248 777.027 241.574 777.295 242.686 777.909C244.945 779.226 246.82 780.968 248.167 783.002C263.214 802.248 278.129 820.537 289.8 841.64" fill="#37474F"/>
<path d="M295.48 818.764C294.343 816.336 293.783 813.739 293.834 811.125C294.048 808.508 295.727 805.821 298.426 805.09C299.573 804.855 300.772 804.888 301.898 805.185C303.025 805.482 304.037 806.032 304.83 806.778C306.497 808.34 307.779 810.172 308.6 812.166C315.81 827.163 315.399 844.383 320.65 860.084L322.774 864.417C311.088 850.435 301.89 835.05 295.48 818.764Z" fill="#37474F"/>
<path d="M399.01 1009.73C419.182 993.672 436.389 975.092 450.043 954.625C453.994 948.725 457.649 942.704 461.007 936.561C461.682 935.337 463.805 936.406 463.13 937.63C451.375 959.219 435.93 979.194 417.3 996.901C412.032 1001.88 406.512 1006.66 400.739 1011.22C399.586 1012.15 397.825 1010.66 398.994 1009.73H399.01Z" fill="#37474F"/>
<path d="M448.924 961.082C464.629 943.806 479.593 923.589 485.14 896.24C485.865 892.709 485.14 888.01 481.947 886.125C479.741 884.844 476.695 885.646 474.802 887.321C473.031 889.164 471.75 891.314 471.049 893.623C462.307 915.936 453.385 937.447 448.397 960.731" fill="#37474F"/>
<path d="M436.132 940.12C436.511 937.515 436.287 934.872 435.474 932.34C434.486 929.892 432.099 927.74 429.284 927.726C428.091 927.805 426.942 928.148 425.95 928.72C424.957 929.292 424.155 930.074 423.621 930.99C422.481 932.906 421.787 934.994 421.58 937.137C419.078 953.415 424.543 969.861 424.132 986.293L423.358 991.006C430.442 974.654 434.744 957.517 436.132 940.12Z" fill="#37474F"/>
<path d="M295.76 775.236C295.397 773.083 295.677 770.565 297.521 769.243C300.517 767.09 304.731 769.651 307.398 772.169C321.708 785.927 332.755 801.928 339.928 819.285L340.208 822.394C325.734 812.64 313.063 801.077 302.624 788.095C299.579 784.226 296.55 780.033 295.76 775.236Z" fill="#37474F"/>
<path d="M331.565 786.181C327.96 769.665 326.33 752.515 329.82 735.985C330.322 732.923 331.435 729.959 333.112 727.22C333.895 725.906 335.018 724.761 336.395 723.874C337.773 722.986 339.37 722.379 341.064 722.099C345.871 721.592 350.381 725.081 352.159 729.274C353.937 733.466 353.558 738.179 352.735 742.625C349.64 759.507 340.866 775.095 332.026 790.177" fill="#37474F"/>
<path d="M347.731 837.926C355.081 824.828 364.329 812.572 375.255 801.446C376.485 800.047 378.003 798.85 379.733 797.915C380.572 797.46 381.539 797.206 382.532 797.179C383.525 797.152 384.508 797.352 385.38 797.76C386.386 798.458 387.142 799.383 387.564 800.429C387.986 801.476 388.056 802.603 387.767 803.683C387.17 805.842 386.048 807.869 384.474 809.634C374.48 822.255 361.6 833.018 346.611 841.274" fill="#37474F"/>
<path d="M389.084 878.795C383.818 863.725 382.067 847.917 383.931 832.27C383.977 830.312 384.539 828.389 385.577 826.643C386.053 825.824 386.846 825.171 387.821 824.794C388.796 824.417 389.893 824.34 390.927 824.575C393.281 825.391 394.006 828.12 394.302 830.455C396.241 845.987 394.369 861.694 388.804 876.572" fill="#37474F"/>
<path d="M408.345 851.896C420.214 830.863 445.878 817.329 471.312 818.666C474.885 818.849 479.214 819.89 480.136 823.125C481.058 826.361 477.733 829.33 474.605 831.046C455.377 841.485 429.449 839.487 412.855 853.26" fill="#37474F"/>
<path d="M391.635 877.768C402.264 872.768 414.44 870.694 426.5 871.83C438.56 872.965 449.915 877.255 459.015 884.113C462.192 886.519 465.386 890.345 463.608 893.792C463.072 894.717 462.254 895.5 461.239 896.06C460.225 896.619 459.053 896.934 457.846 896.972C455.49 896.967 453.156 896.585 450.965 895.846L389.43 878.612" fill="#37474F"/>
<path d="M521.049 1038.94C522.976 1024.75 522.498 1009.95 519.636 995.164C516.93 979.956 512.256 964.878 505.743 950.342C502.43 942.907 498.493 935.699 493.982 928.809C493.065 927.428 495.098 926.691 495.962 927.988C504.393 941.078 510.979 955.127 515.486 969.636C520.461 984.798 523.437 1000.28 524.329 1015.62C524.808 1023.86 524.461 1032 523.293 1039.9C523.066 1041.33 520.886 1040.37 521.092 1038.97L521.049 1038.94Z" fill="#37474F"/>
<path d="M517.52 993.765C526.568 977.625 530.034 958.201 527.442 938.153C527.168 935.898 526.637 933.643 525.86 931.435C524.135 926.849 518.062 925.967 515.809 930.027C514.777 931.901 514.19 934.045 514.087 936.315C513.844 941.172 515.419 945.993 516.683 950.841C520.244 964.999 520.783 979.312 518.26 992.746" fill="#37474F"/>
<path d="M478.67 901.566C479.625 901.105 480.711 900.907 481.837 900.986C482.963 901.066 484.095 901.422 485.14 902.024C487.112 903.24 488.873 904.835 490.308 906.704C505.508 924.81 511.971 948.411 515.558 971.304L515.45 978.121C508.667 954.296 486.332 937.12 477.205 913.95C476.235 911.775 475.706 909.481 475.655 907.226C475.653 906.036 475.924 904.905 476.447 903.922C476.97 902.94 477.731 902.133 478.67 901.566Z" fill="#37474F"/>
<path d="M415.448 1222.36C419.044 1214.41 423.004 1206.67 426.985 1199.02C432.414 1188.69 438.014 1178.47 443.699 1168.3C450.471 1156.22 457.344 1144.21 464.315 1132.28C472.002 1119.09 479.785 1105.97 487.665 1092.93C495.858 1079.31 504.149 1065.76 512.535 1052.29C520.921 1038.82 529.3 1025.51 537.671 1012.37C545.678 999.884 553.78 987.469 561.979 975.123C569.292 964.181 576.668 953.314 584.194 942.623C590.348 933.9 596.608 925.26 603.146 916.858C607.766 910.935 612.471 905.046 617.709 899.719C618.599 898.81 619.52 897.918 620.462 897.072C620.676 896.89 620.964 896.815 621.265 896.863C621.566 896.911 621.854 897.078 622.066 897.327C622.279 897.577 622.398 897.888 622.397 898.192C622.397 898.497 622.277 898.77 622.064 898.951C617.291 903.459 612.877 908.345 608.852 913.577C602.625 921.324 596.708 929.326 590.898 937.41C583.554 947.665 576.393 958.068 569.348 968.522C561.257 980.546 553.28 992.652 545.416 1004.84C536.995 1017.87 528.677 1030.97 520.463 1044.15C512.027 1057.64 503.676 1071.19 495.411 1084.82C487.389 1098.04 479.456 1111.32 471.612 1124.66C464.425 1136.88 457.332 1149.15 450.331 1161.49C444.292 1172.15 438.348 1182.85 432.566 1193.68C428.124 1201.98 423.757 1210.35 419.679 1218.91C418.895 1220.55 418.112 1222.21 417.36 1223.87C416.78 1225.14 414.815 1223.68 415.395 1222.43L415.448 1222.36Z" fill="#37474F"/>
<path d="M555.888 984.57C547.476 957.506 542.922 929.918 542.379 902.727C542.186 895.11 542.385 887.55 542.973 880.078C543.082 878.622 545.349 878.984 545.239 880.439C543.389 907.275 545.717 934.896 552.14 962.312C553.81 969.683 555.787 977.016 558.071 984.312C558.539 985.794 556.346 986.019 555.878 984.536L555.888 984.57Z" fill="#37474F"/>
<path d="M480.186 858.108C481.193 857.267 482.456 856.771 483.832 856.676C485.208 856.582 486.642 856.893 487.973 857.573C490.456 858.974 492.695 860.864 494.542 863.116L545.934 918.943L544.503 917.805C520.678 908.653 499.1 892.478 482.763 871.526C481.107 869.555 479.825 867.31 478.999 864.936C478.601 863.697 478.501 862.422 478.709 861.229C478.916 860.036 479.424 858.963 480.186 858.108Z" fill="#37474F"/>
<path d="M541.963 908.097C538.463 884.568 537.104 858.998 547.352 832.625C548.673 829.229 551.738 825.602 555.384 825.783C556.601 825.969 557.782 826.575 558.729 827.497C559.676 828.419 560.331 829.602 560.584 830.847C561.047 833.421 560.936 835.978 560.262 838.323C555.366 862.257 551.113 885.47 542.616 908.039" fill="#37474F"/>
<path d="M563.713 897.53C564.825 895.09 566.439 892.981 568.462 891.323C570.593 889.79 573.727 889.326 576.035 890.907C576.956 891.628 577.709 892.562 578.213 893.612C578.717 894.662 578.955 895.789 578.902 896.876C578.793 899.158 578.23 901.322 577.244 903.24C570.502 918.454 557.125 929.306 548.578 943.484L546.656 947.91C549.723 929.948 555.471 912.97 563.713 897.53Z" fill="#37474F"/>
<path d="M597.033 869.519C598.437 867.848 600.535 866.428 602.738 866.974C606.319 867.859 607.102 872.728 606.914 876.391C605.719 896.205 600.7 914.991 592.137 931.705L589.952 933.935C587.992 916.591 588.58 899.448 591.695 883.083C592.665 878.256 593.893 873.231 597.033 869.519Z" fill="#37474F"/>
<path d="M611.916 903.875C622.153 890.421 634.152 878.06 649 869.998C651.655 868.395 654.635 867.321 657.807 866.822C659.315 866.565 660.914 866.678 662.483 867.152C664.052 867.625 665.549 868.447 666.861 869.555C670.364 872.886 670.632 878.582 668.593 882.654C666.554 886.726 662.721 889.494 658.803 891.75C643.943 900.34 626.387 903.767 609.174 906.816" fill="#37474F"/>
<path d="M583.005 949.733C597.743 946.836 613.069 945.93 628.625 947.033C630.487 947.063 632.382 947.442 634.216 948.153C635.106 948.497 635.926 949.068 636.591 949.806C637.255 950.545 637.74 951.423 637.995 952.351C638.116 953.569 637.903 954.745 637.38 955.745C636.856 956.745 636.044 957.529 635.034 958.009C633.003 958.954 630.732 959.415 628.369 959.361C612.28 959.936 595.735 957.109 579.731 951.051" fill="#37474F"/>
<path d="M163.541 717.778C178.169 712.76 194.631 712.154 209.776 714.906C213.884 715.634 217.925 716.706 221.855 718.111C222.654 718.401 223.216 717.18 222.409 716.889C207.641 711.54 190.91 710.785 175.503 713.411C171.277 714.116 167.115 715.16 163.055 716.535C162.247 716.813 162.722 718.063 163.541 717.778Z" fill="#37474F"/>
<path d="M187.873 713.03C194.202 710.667 200.735 708.824 207.364 708.587C213.993 708.35 220.738 709.811 226.235 713.694C227.699 714.722 229.225 716.32 228.877 718.225C228.718 718.918 228.358 719.547 227.842 720.033C227.326 720.519 226.677 720.84 225.979 720.953C224.645 721.107 223.295 720.948 222.034 720.488C211.546 717.456 201.302 712.781 190.38 712.589" fill="#37474F"/>
<path d="M170.846 700.799C176.999 694.926 184.084 690.127 191.808 686.598C199.688 682.841 208.038 680.176 216.628 678.675C221.016 677.897 225.467 677.528 229.922 677.573C230.819 677.589 230.617 676.256 229.774 676.24C221.347 676.228 212.967 677.525 204.93 680.084C196.46 682.618 188.381 686.322 180.924 691.091C176.922 693.65 173.19 696.613 169.788 699.935C169.178 700.543 170.215 701.376 170.821 700.786L170.846 700.799Z" fill="#37474F"/>
<path d="M193.036 687.245C198.186 676.92 206.384 668.442 216.509 662.972C217.643 662.347 218.847 661.859 220.094 661.518C222.715 660.869 224.767 663.798 223.466 666.382C222.863 667.571 222.013 668.616 220.973 669.446C218.755 671.234 216.064 672.044 213.444 673.027C205.827 675.97 198.953 680.573 193.316 686.503" fill="#37474F"/>
<path d="M191.492 687.397L220.463 702.44C221.566 703.135 222.82 703.551 224.118 703.654C224.789 703.666 225.447 703.461 225.994 703.07C226.542 702.679 226.951 702.123 227.161 701.482C227.541 699.998 226.612 698.549 225.596 697.529C223.343 695.433 220.699 693.806 217.816 692.741C209.648 689.307 200.922 687.401 192.067 687.118" fill="#37474F"/>
<path d="M246.859 676.41C246.818 675.745 246.619 675.099 246.278 674.528C245.937 673.956 245.464 673.475 244.9 673.126C243.796 672.493 242.572 672.101 241.306 671.976C228.696 670.078 215.857 674.703 204.126 680.616L200.95 683.002C213.981 678.47 228.077 684.48 241.431 681.419C242.715 681.192 243.936 680.69 245.011 679.947C245.571 679.541 246.029 679.011 246.35 678.397C246.671 677.783 246.845 677.103 246.859 676.41Z" fill="#37474F"/>
<path d="M175.53 690.233C175.089 682.129 173.726 674.104 171.468 666.314C169.287 658.403 166.374 650.717 162.765 643.355C161.051 639.848 159.095 636.467 156.912 633.235C156.422 632.525 155.344 633.311 155.834 634.021C159.869 640.1 163.2 646.622 165.761 653.462C168.813 661.177 171.131 669.166 172.684 677.321C173.496 681.633 174.004 685.998 174.203 690.383C174.236 691.247 175.564 691.097 175.53 690.233Z" fill="#37474F"/>
<path d="M113.073 819.61C115.841 814.982 118.413 810.232 120.937 805.502C124.332 799.085 127.627 792.617 130.872 786.122C134.727 778.394 138.521 770.637 142.253 762.853C146.384 754.259 150.452 745.64 154.459 736.995C158.656 727.984 162.791 718.948 166.864 709.887C170.938 700.825 174.935 691.825 178.857 682.884C182.569 674.362 186.222 665.812 189.817 657.235C192.99 649.608 196.111 641.974 199.109 634.32C201.551 628.068 203.926 621.787 206.114 615.44C207.654 610.96 209.154 606.447 210.247 601.841C210.434 601.058 210.605 600.263 210.749 599.473C210.777 599.298 210.734 599.119 210.631 598.975C210.527 598.831 210.371 598.735 210.197 598.707C210.022 598.68 209.844 598.723 209.701 598.827C209.558 598.931 209.462 599.088 209.434 599.264C208.601 603.341 207.494 607.358 206.118 611.285C204.155 617.243 201.987 623.123 199.753 628.974C196.911 636.382 193.95 643.744 190.934 651.061C187.462 659.471 183.92 667.849 180.308 676.194C176.454 685.122 172.536 694.021 168.553 702.891C164.487 711.984 160.364 721.055 156.185 730.105C152.132 738.887 148.027 747.642 143.869 756.37C140.061 764.365 136.201 772.331 132.289 780.268C128.906 787.12 125.474 793.937 121.942 800.711C119.236 805.909 116.478 811.09 113.555 816.181C112.995 817.158 112.425 818.142 111.849 819.108C111.407 819.851 112.624 820.397 113.056 819.661L113.073 819.61Z" fill="#37474F"/>
<path d="M187.017 663.701C202.009 658.929 216.208 651.927 229.139 642.928C232.772 640.428 236.273 637.74 239.628 634.875C240.283 634.32 239.502 633.238 238.847 633.793C226.728 643.944 213.114 652.141 198.493 658.091C194.577 659.72 190.596 661.174 186.55 662.452C185.727 662.709 186.212 663.952 187.036 663.695L187.017 663.701Z" fill="#37474F"/>
<path d="M266.883 660.759C267.007 659.936 266.9 659.095 266.574 658.331C266.247 657.567 265.714 656.91 265.035 656.435C263.708 655.594 262.215 655.048 260.659 654.835L220.556 646.576L221.477 646.949C232.203 656.492 245.624 662.441 259.88 663.972C261.253 664.179 262.654 664.094 263.993 663.723C264.683 663.511 265.309 663.128 265.814 662.611C266.319 662.093 266.687 661.456 266.883 660.759Z" fill="#37474F"/>
<path d="M226.726 644.983C238.733 638.807 251.121 630.795 260.759 616.337C261.999 614.474 262.878 611.606 261.81 609.728C261.395 609.145 260.792 608.724 260.103 608.535C259.414 608.347 258.681 608.402 258.028 608.693C256.693 609.326 255.52 610.258 254.6 611.418C244.666 622.197 234.898 632.388 226.578 644.616" fill="#37474F"/>
<path d="M225.832 629.807C226.679 628.383 227.236 626.804 227.47 625.162C227.616 623.505 226.99 621.68 225.624 620.993C225.037 620.749 224.395 620.668 223.765 620.758C223.135 620.849 222.541 621.108 222.045 621.507C221.001 622.344 220.135 623.383 219.499 624.563C214.164 633.345 212.667 644.165 208.305 653.553L206.742 656.087C214.361 648.32 220.794 639.464 225.832 629.807Z" fill="#37474F"/>
<path d="M151.649 740.641C142.503 728.873 135.188 715.778 129.953 701.801C128.436 697.771 127.089 693.69 125.912 689.558C125.675 688.734 124.437 689.224 124.675 690.048C128.786 704.566 135.024 718.386 143.184 731.055C145.494 734.621 147.96 738.079 150.58 741.429C151.101 742.108 152.188 741.323 151.658 740.643L151.649 740.641Z" fill="#37474F"/>
<path d="M88.3357 694.981C88.6635 694.234 89.202 693.599 89.8846 693.155C90.5673 692.712 91.3643 692.478 92.1768 692.485C93.7414 692.577 95.2677 693.004 96.6531 693.739L134.29 710.432L133.331 710.189C119.142 711.766 104.825 708.819 92.4091 701.764C91.1465 701.135 90.0261 700.253 89.1169 699.171C88.6558 698.591 88.3435 697.905 88.2073 697.175C88.0711 696.444 88.1152 695.691 88.3357 694.981Z" fill="#37474F"/>
<path d="M129.906 705.941C123.261 693.789 117.304 679.858 117.073 662.259C117.039 659.986 117.893 657.104 119.783 656.194C121.085 655.579 122.628 656.339 123.47 657.548C124.23 658.853 124.698 660.308 124.841 661.814C127.275 676.53 129.885 690.759 130.222 705.765" fill="#37474F"/>
<path d="M138.809 693.895C138.867 692.232 139.25 690.595 139.935 689.078C140.705 687.629 142.191 686.483 143.692 686.713C144.32 686.864 144.898 687.176 145.37 687.618C145.842 688.061 146.191 688.618 146.384 689.237C146.801 690.534 146.962 691.901 146.859 693.261C146.57 703.668 142.02 713.505 140.602 723.832L140.544 726.849C138.4 716.007 137.815 704.909 138.809 693.895Z" fill="#37474F"/>
<path d="M230.02 602.52C230.427 601.203 230.529 599.602 229.678 598.617C228.297 597.015 225.797 598.262 224.125 599.613C215.131 607.017 207.651 616.103 202.101 626.366L201.642 628.29C210.325 623.408 218.226 617.239 225.081 609.992C227.089 607.827 229.121 605.458 230.02 602.52Z" fill="#37474F"/>
<path d="M209.854 606.341C213.421 596.302 215.998 585.699 215.786 575.05C215.823 573.09 215.525 571.139 214.905 569.281C214.619 568.392 214.135 567.58 213.489 566.907C212.844 566.235 212.054 565.719 211.179 565.4C208.669 564.675 205.918 566.478 204.553 568.953C203.189 571.429 202.921 574.412 202.916 577.267C202.883 588.103 206.004 598.61 209.211 608.805" fill="#37474F"/>
<path d="M196.086 637.38C193.476 628.554 189.77 620.094 185.058 612.199C184.542 611.218 183.853 610.34 183.024 609.608C182.623 609.252 182.133 609.011 181.607 608.91C181.081 608.809 180.537 608.851 180.032 609.032C179.426 609.384 178.931 609.899 178.602 610.519C178.273 611.139 178.123 611.839 178.17 612.54C178.273 613.943 178.668 615.308 179.331 616.546C183.398 625.298 189.187 633.131 196.349 639.572" fill="#37474F"/>
<path d="M169.984 659.473C174.291 650.48 176.799 640.728 177.365 630.77C177.536 629.54 177.427 628.287 177.049 627.106C176.876 626.553 176.519 626.076 176.037 625.758C175.556 625.439 174.979 625.298 174.404 625.357C173.069 625.669 172.411 627.317 172.021 628.754C169.44 638.318 168.873 648.314 170.355 658.105" fill="#37474F"/>
<path d="M162.403 640.993C158.176 626.814 145.852 616.162 132.17 614.844C130.248 614.655 127.838 614.94 127.024 616.889C126.211 618.838 127.687 620.979 129.182 622.319C138.385 630.486 152.397 631.433 159.865 641.465" fill="#37474F"/>
<path d="M168.727 658.614C163.563 654.581 157.283 652.25 150.745 651.94C144.207 651.629 137.731 653.353 132.199 656.877C130.267 658.115 128.184 660.241 128.788 662.55C128.982 663.175 129.34 663.735 129.824 664.171C130.309 664.608 130.902 664.905 131.541 665.03C132.796 665.227 134.078 665.186 135.319 664.908L169.818 659.329" fill="#37474F"/>
<path d="M133.006 781.637C138.768 776.594 145.097 772.246 151.864 768.682C158.473 765.103 165.429 762.213 172.622 760.059C176.158 759 179.774 758.236 183.434 757.777C183.521 757.767 183.606 757.74 183.682 757.697C183.759 757.655 183.827 757.597 183.882 757.528C183.937 757.459 183.977 757.38 184.002 757.296C184.026 757.211 184.034 757.122 184.024 757.035C184.014 756.947 183.988 756.863 183.945 756.786C183.903 756.708 183.846 756.64 183.777 756.585C183.709 756.531 183.63 756.49 183.546 756.465C183.462 756.441 183.374 756.433 183.286 756.443C176.413 757.398 169.69 759.244 163.287 761.935C156.009 764.811 149.041 768.425 142.49 772.72C138.894 775.082 135.472 777.702 132.251 780.56C131.613 781.127 132.392 782.217 133.032 781.642L133.006 781.637Z" fill="#37474F"/>
<path d="M156.649 765.116C159.884 755.803 164.947 747.235 171.537 739.92C172.262 738.981 173.198 738.229 174.269 737.726C174.794 737.497 175.382 737.461 175.93 737.624C176.477 737.787 176.95 738.139 177.265 738.618C177.964 739.876 177.255 741.507 176.531 742.783C171.666 751.261 164.366 759.73 156.649 765.116Z" fill="#37474F"/>
<path d="M211.287 764.078C201.117 754.239 184.513 752.41 171.831 758.704L173.445 759.865C185.457 758.912 196.274 769.821 208.16 771.468C210.089 771.775 212.556 771.471 213.374 769.496C214.192 767.521 212.712 765.461 211.287 764.078Z" fill="#37474F"/>
<path d="M157.677 764.304C170.322 766.776 180.941 778.024 183.577 791.751C184.031 794.1 183.965 797.171 181.957 798.261C181.375 798.529 180.73 798.627 180.095 798.542C179.461 798.457 178.864 798.193 178.374 797.781C177.381 796.921 176.546 795.892 175.908 794.741C169.449 784.472 163.135 775.381 156.64 765.115" fill="#37474F"/>
<path d="M181.75 714.721C190.788 721.298 198.761 729.237 205.386 738.258C206.185 739.343 207.077 740.515 208.346 740.735C210.17 741.025 211.858 739.062 212.054 737.042C212.114 735.053 211.525 733.1 210.376 731.481C207.142 726.54 202.66 722.55 197.388 719.919C192.296 717.221 186.802 715.525 181.347 713.754" fill="#37474F"/>
<path d="M6.6872 584.351C33.3786 592.061 59.4446 607.664 80.8169 626.569C86.6296 631.672 92.0653 637.18 97.0673 643.034C98.0811 644.23 99.9177 643.114 98.8913 641.908C80.1507 619.811 54.7398 602.067 28.7213 590.293C21.5984 587.042 14.3049 584.322 6.91144 582.158C5.43567 581.733 5.18977 583.926 6.6872 584.351Z" fill="#37474F"/>
<path d="M48.25 602.121C59.9491 605.192 71.5567 609.183 82.0476 615.476C92.5384 621.768 101.872 630.512 107.356 641.337C108.822 644.212 109.935 647.932 107.893 650.202C107.101 650.996 106.045 651.501 104.859 651.654C103.674 651.806 102.413 651.599 101.239 651.058C99.0442 649.938 97.0702 648.371 95.4723 646.48C81.56 631.84 69.3193 615.187 52.4947 604.017" fill="#37474F"/>
<path d="M31.421 568.31C45.6124 566.383 60.4074 566.86 75.1949 569.723C90.4029 572.429 105.481 577.102 120.017 583.616C127.452 586.929 134.66 590.866 141.549 595.376C142.93 596.294 143.667 594.26 142.371 593.396C129.28 584.966 115.232 578.38 100.723 573.873C85.5612 568.898 70.0837 565.922 54.7353 565.03C46.498 564.551 38.3626 564.898 30.4566 566.065C29.0307 566.292 29.9849 568.473 31.3926 568.267L31.421 568.31Z" fill="#37474F"/>
<path d="M76.5936 571.838C92.7334 562.79 112.157 559.325 132.206 561.916C134.461 562.19 136.716 562.721 138.924 563.499C143.509 565.224 144.391 571.297 140.332 573.55C138.458 574.581 136.314 575.169 134.043 575.271C129.187 575.515 124.365 573.94 119.517 572.675C105.359 569.114 91.0472 568.576 77.6128 571.099" fill="#37474F"/>
<path d="M74.0742 570.506L107.252 620.107C108.42 622.163 110.041 623.987 111.977 625.426C113.012 626.111 114.195 626.487 115.354 626.496C116.513 626.506 117.587 626.149 118.419 625.479C120.179 623.818 119.876 620.899 119.101 618.483C117.25 613.353 114.422 608.476 110.78 604.134C100.79 591.258 88.7276 579.927 75.1876 570.696" fill="#37474F"/>
<path d="M168.793 610.689C169.253 609.733 169.452 608.647 169.372 607.521C169.293 606.396 168.937 605.263 168.335 604.219C167.119 602.247 165.524 600.485 163.655 599.05C145.549 583.851 121.948 577.388 99.0545 573.8L92.2377 573.908C116.063 580.692 133.239 603.026 156.409 612.153C158.584 613.124 160.877 613.653 163.133 613.704C164.323 613.706 165.454 613.435 166.436 612.912C167.419 612.388 168.226 611.627 168.793 610.689Z" fill="#37474F"/>
<path d="M47.0278 558.466C52.7277 546.887 56.9326 534.497 59.5604 521.536C62.4041 508.487 63.932 495.014 64.1242 481.293C64.2223 474.763 63.8464 468.163 62.9993 461.541C62.7982 460.076 60.5028 460.08 60.7039 461.545C62.1877 473.928 62.2255 486.218 60.8167 498.176C59.4816 511.826 56.7896 525.119 52.7769 537.879C50.6419 544.616 47.9916 551.121 44.8457 557.346C44.2172 558.567 46.3993 559.686 47.0278 558.466Z" fill="#37474F"/>
<path d="M-152 673.91C-144.05 670.314 -136.31 666.355 -128.659 662.374C-118.327 656.945 -108.108 651.345 -97.9462 645.66C-85.8639 638.887 -73.8553 632.015 -61.9203 625.043C-48.7276 617.356 -35.6115 609.573 -22.5722 601.694C-8.94766 593.5 4.60016 585.21 18.0713 576.824C31.5424 568.438 44.8486 560.059 57.99 551.688C70.4747 543.681 82.89 535.578 95.2357 527.38C106.178 520.067 117.045 512.691 127.736 505.165C136.458 499.011 145.099 492.751 153.5 486.213C159.424 481.593 165.313 476.888 170.64 471.649C171.548 470.76 172.441 469.839 173.287 468.896C173.469 468.683 173.544 468.395 173.496 468.094C173.448 467.793 173.281 467.505 173.031 467.292C172.782 467.08 172.471 466.961 172.166 466.962C171.862 466.962 171.589 467.082 171.407 467.295C166.9 472.068 162.014 476.482 156.781 480.507C149.035 486.734 141.032 492.651 132.948 498.461C122.694 505.804 112.291 512.966 101.837 520.01C89.813 528.102 77.7063 536.079 65.5164 543.943C52.4913 552.364 39.3884 560.681 26.2076 568.896C12.7228 577.332 -0.83343 585.683 -14.461 593.948C-27.6797 601.97 -40.9596 609.903 -54.3006 617.747C-66.5191 624.933 -78.7956 632.027 -91.1302 639.028C-101.788 645.067 -112.493 651.01 -123.322 656.793C-131.624 661.235 -139.993 665.602 -148.548 669.68C-150.189 670.464 -151.851 671.247 -153.507 671.999C-154.779 672.578 -153.318 674.544 -152.067 673.964L-152 673.91Z" fill="#37474F"/>
<path d="M85.7884 533.47C112.853 541.883 140.441 546.437 167.632 546.98C175.249 547.172 182.808 546.974 190.281 546.386C191.736 546.277 191.375 544.01 189.919 544.119C163.084 545.969 135.463 543.641 108.047 537.219C100.676 535.549 93.3425 533.572 86.0469 531.288C84.5643 530.82 84.34 533.013 85.8226 533.481L85.7884 533.47Z" fill="#37474F"/>
<path d="M212.251 609.172C213.092 608.166 213.588 606.903 213.682 605.527C213.777 604.151 213.466 602.716 212.785 601.385C211.385 598.903 209.495 596.663 207.243 594.817L151.415 543.424L152.553 544.856C161.706 568.681 177.88 590.258 198.833 606.596C200.803 608.251 203.048 609.534 205.422 610.36C206.662 610.758 207.936 610.857 209.13 610.65C210.323 610.442 211.396 609.934 212.251 609.172Z" fill="#37474F"/>
<path d="M162.262 547.395C185.791 550.896 211.361 552.254 237.734 542.007C241.13 540.686 244.756 537.621 244.576 533.974C244.389 532.758 243.784 531.577 242.862 530.63C241.939 529.683 240.756 529.028 239.512 528.774C236.938 528.312 234.38 528.422 232.036 529.097C208.102 533.993 184.889 538.245 162.32 546.743" fill="#37474F"/>
<path d="M172.829 525.645C175.268 524.534 177.378 522.92 179.035 520.897C180.569 518.766 181.033 515.632 179.452 513.324C178.731 512.402 177.797 511.65 176.747 511.146C175.697 510.641 174.569 510.404 173.482 510.457C171.201 510.565 169.037 511.129 167.119 512.115C151.905 518.857 141.053 532.233 126.875 540.781L122.449 542.703C140.411 539.636 157.389 533.887 172.829 525.645Z" fill="#37474F"/>
<path d="M-29.8125 603.899C-34.7563 578.593 -35.8082 553.292 -32.9322 528.856C-32.1148 521.803 -30.9927 514.85 -29.5661 507.995C-29.2863 506.626 -31.5963 506.063 -31.8761 507.432C-36.9254 531.49 -38.1186 556.712 -35.4168 582.272C-34.6356 589.479 -33.5284 596.693 -32.0953 603.913C-31.8201 605.367 -29.5122 605.374 -29.7999 603.909L-29.8125 603.899Z" fill="#37474F"/>
<path d="M-36.2671 534.498C-37.0212 511.163 -35.3049 486.069 -21.7949 461.651C-20.0567 458.493 -16.4585 455.385 -12.8048 456.021C-10.2953 456.477 -8.49675 459.062 -8.14104 461.564C-7.98748 464.116 -8.40696 466.584 -9.37032 468.796C-17.1832 491.45 -24.3383 513.612 -35.638 534.572" fill="#37474F"/>
<path d="M-12.9372 526.834C-11.5363 524.605 -9.65201 522.737 -7.39135 521.338C-5.05215 520.115 -1.83922 520.024 0.312974 521.838C1.16977 522.673 1.82227 523.678 2.20692 524.757C2.59157 525.836 2.69524 526.952 2.50786 527.995C2.13346 530.194 1.30732 532.233 0.0755227 533.999C-8.57382 548.013 -23.3984 556.99 -33.7397 569.767L-36.2066 573.856C-30.9965 556.814 -23.1602 540.978 -12.9372 526.834Z" fill="#37474F"/>
<path d="M200.84 492.326C202.511 490.922 203.931 488.823 203.385 486.621C202.499 483.04 197.631 482.256 193.968 482.444C174.153 483.64 155.368 488.659 138.653 497.221L136.424 499.407C153.767 501.367 170.911 500.779 187.276 497.664C192.103 496.693 197.127 495.466 200.84 492.326Z" fill="#37474F"/>
<path d="M166.484 477.442C179.938 467.206 192.299 455.207 200.36 440.359C201.963 437.703 203.038 434.724 203.537 431.552C203.793 430.044 203.681 428.445 203.207 426.876C202.733 425.307 201.912 423.809 200.804 422.497C197.473 418.995 191.777 418.726 187.705 420.765C183.633 422.804 180.865 426.638 178.609 430.556C170.019 445.415 166.591 462.972 163.542 480.185" fill="#37474F"/>
<path d="M120.626 506.353C123.522 491.616 124.429 476.29 123.325 460.734C123.296 458.871 122.917 456.977 122.206 455.142C121.862 454.252 121.291 453.432 120.552 452.768C119.814 452.103 118.935 451.618 118.008 451.363C116.789 451.242 115.613 451.456 114.613 451.979C113.613 452.502 112.829 453.315 112.35 454.325C111.404 456.355 110.944 458.626 110.998 460.99C110.423 477.079 113.249 493.624 119.307 509.628" fill="#37474F"/>
<path d="M62.6443 510.654C76.4246 502.595 88.007 491.696 96.7339 478.575C97.9685 477.055 98.7874 475.226 99.1295 473.224C99.2978 472.291 99.1178 471.28 98.62 470.361C98.1221 469.442 97.3369 468.672 96.3973 468.18C94.0761 467.275 91.7549 468.883 90.0151 470.469C78.4679 481.036 69.7092 494.208 64.2986 509.143" fill="#37474F"/>
<path d="M65.4225 477.686C70.0241 453.978 59.2612 427.034 39.0317 411.56C36.1936 409.383 32.2224 407.368 29.4225 409.234C26.6226 411.1 27.2294 415.516 28.4977 418.85C36.3672 439.265 57.4014 454.556 61.1037 475.801" fill="#37474F"/>
<path d="M61.3676 508.217C56.5178 497.519 48.593 488.045 38.6756 481.09C28.7582 474.135 17.3319 470.038 5.95753 469.358C1.97886 469.13 -2.9337 469.972 -3.8151 473.749C-4.00636 474.8 -3.89129 475.928 -3.48207 477.011C-3.07285 478.095 -2.38465 479.095 -1.49027 479.905C0.306085 481.43 2.33049 482.652 4.47811 483.51L62.4996 510.29" fill="#37474F"/>
<path d="M-91.0947 641.627C-78.1655 640.448 -64.9014 640.792 -51.5741 642.651C-38.481 644.331 -25.392 647.305 -12.5126 651.527C-6.18246 653.601 0.0401484 656.163 6.09139 659.186C6.23467 659.259 6.38721 659.306 6.54022 659.324C6.69323 659.343 6.84374 659.331 6.98319 659.291C7.12264 659.251 7.24827 659.184 7.35293 659.092C7.45759 659 7.53926 658.885 7.5932 658.755C7.64713 658.625 7.67228 658.482 7.66727 658.334C7.66227 658.186 7.62719 658.035 7.56401 657.891C7.50084 657.747 7.41079 657.613 7.29906 657.495C7.18732 657.378 7.05609 657.279 6.91281 657.206C-4.5235 651.654 -16.4275 647.479 -28.5013 644.784C-42.0807 641.47 -55.7597 639.479 -69.326 638.842C-76.7773 638.497 -84.1607 638.681 -91.4186 639.392C-92.8581 639.533 -92.5057 641.811 -91.0571 641.659L-91.0947 641.627Z" fill="#37474F"/>
<path d="M-41.3267 642.527C-28.9602 632.958 -14.3391 626.238 1.66939 622.766C3.53542 622.199 5.5838 622.1 7.64506 622.477C8.64085 622.687 9.58285 623.225 10.3059 623.996C11.0289 624.767 11.4868 625.723 11.5993 626.695C11.694 629.123 9.30687 630.656 7.17517 631.687C-7.06613 638.481 -25.0869 642.832 -41.3267 642.527Z" fill="#37474F"/>
<path d="M44.4203 695.656C36.3664 671.98 11.9966 652.887 -12.6756 648.875L-11.0813 652.081C8.34096 662.765 16.5593 688.558 33.7372 702.69C36.4943 705.038 40.568 707.085 43.3953 705.187C46.2225 703.289 45.5461 698.98 44.4203 695.656Z" fill="#37474F"/>
<path d="M-39.0884 642.438C-21.3813 658.462 -13.7375 684.524 -20.4569 706.021C-21.6027 709.702 -24.1243 713.856 -28.104 713.35C-29.2201 713.138 -30.3004 712.627 -31.2194 711.877C-32.1384 711.127 -32.8584 710.169 -33.296 709.112C-34.161 706.939 -34.6477 704.692 -34.7339 702.473C-36.6813 681.91 -39.3327 663.112 -41.3394 642.517" fill="#37474F"/>
<path d="M37.4004 598.331C46.2667 616.395 52.4033 635.266 55.5939 654.279C55.9804 656.567 56.4444 659.069 58.2434 660.638C60.8502 662.859 65.0208 661.846 66.9161 659.266C68.5765 656.592 69.1995 653.319 68.6899 649.947C67.5564 639.927 63.7335 629.969 57.611 621.089C51.8225 612.297 44.6192 604.48 37.5356 596.599" fill="#37474F"/>
<path d="M-28.5752 325.889C-17.9065 335.444 -8.67709 347.017 -1.26801 360.131C6.53317 373.463 12.752 387.972 17.2181 403.261C19.5165 411.07 21.1931 419.11 22.2265 427.28C22.4235 428.926 24.4494 428.169 24.2665 426.621C22.197 411.189 18.1016 396.224 12.1253 382.256C6.08161 367.487 -1.68838 353.775 -10.9613 341.512C-15.9378 334.93 -21.4768 328.962 -27.4919 323.7C-28.5893 322.761 -29.6303 324.902 -28.5611 325.84L-28.5752 325.889Z" fill="#37474F"/>
<path d="M-1.97143 362.567C15.3819 368.987 30.6148 381.528 41.6413 398.471C42.8949 400.365 43.9527 402.426 44.7926 404.611C46.4527 409.221 42.401 413.83 38.0538 412.2C36.0535 411.443 34.2158 410.191 32.6655 408.529C29.3312 404.99 27.4038 400.298 25.2232 395.788C18.7542 382.7 9.88414 371.455 -0.747467 362.863" fill="#37474F"/>
<path d="M28.234 457.949C29.2598 457.68 30.2156 457.127 31.021 456.336C31.8264 455.546 32.4579 454.54 32.8625 453.405C33.5753 451.2 33.8821 448.844 33.7629 446.491C33.5941 422.851 23.2115 400.693 11.0984 380.939L6.59642 375.819C16.8806 398.356 11.014 425.913 19.0894 449.471C19.7607 451.756 20.8452 453.844 22.2689 455.595C23.0386 456.502 23.9784 457.187 25.0138 457.596C26.0492 458.005 27.1517 458.125 28.234 457.949Z" fill="#37474F"/>
<path d="M-10.9613 331.387C1.54899 328.219 13.7084 323.387 25.2795 316.983C37.057 310.687 48.3048 303.115 58.8753 294.364C63.9104 290.205 68.6912 285.639 73.1831 280.7C74.1679 279.598 72.6766 277.853 71.6918 278.955C63.2265 288.114 53.8948 296.112 43.8782 302.793C32.6206 310.627 20.7548 317.197 8.43932 322.416C1.92591 325.159 -4.7452 327.359 -11.524 329C-12.8606 329.313 -12.2978 331.7 -10.9613 331.387Z" fill="#37474F"/>
<path d="M-227.899 254.723C-220.007 258.444 -211.974 261.769 -203.983 265.012C-193.15 269.358 -182.261 273.507 -171.343 277.556C-158.353 282.363 -145.335 287.049 -132.289 291.615C-117.883 296.674 -103.453 301.613 -88.9999 306.431C-73.9277 311.49 -58.8321 316.429 -43.713 321.247C-28.594 326.065 -13.5874 330.762 1.30652 335.338C15.4971 339.652 29.7157 343.849 43.9626 347.932C56.6243 351.521 69.2861 355.011 81.9478 358.27C92.2882 360.921 102.657 363.439 113.082 365.596C120.44 367.11 127.84 368.543 135.282 369.201C136.548 369.316 137.828 369.399 139.094 369.432C139.374 369.432 139.643 369.302 139.841 369.07C140.038 368.838 140.15 368.524 140.15 368.197C140.15 367.869 140.038 367.555 139.841 367.324C139.643 367.092 139.374 366.962 139.094 366.962C132.538 366.626 126.01 365.768 119.553 364.394C109.79 362.534 100.096 360.279 90.4312 357.892C78.1915 354.846 65.994 351.57 53.8528 348.179C39.8967 344.272 25.9735 340.228 12.0831 336.046C-2.77337 331.591 -17.6017 327.009 -32.4019 322.3C-47.5678 317.504 -62.715 312.599 -77.8435 307.583C-92.5217 302.721 -107.172 297.755 -121.794 292.685C-135.187 288.043 -148.548 283.296 -161.875 278.445C-173.383 274.247 -184.849 269.951 -196.273 265.457C-205.038 262.016 -213.788 258.477 -222.441 254.608C-224.101 253.867 -225.775 253.11 -227.421 252.336C-228.687 251.744 -229.236 254.131 -227.984 254.707L-227.899 254.723Z" fill="#37474F"/>
<path d="M33.2001 344.689C44.3439 370.748 58.7652 394.704 75.9827 415.756C80.7749 421.679 85.8277 427.306 91.1206 432.613C92.1476 433.651 93.6388 431.906 92.6118 430.868C73.803 411.638 57.6656 389.101 44.7786 364.065C41.2708 357.37 38.0209 350.506 35.029 343.471C34.4241 342.039 32.6092 343.29 33.2142 344.722L33.2001 344.689Z" fill="#37474F"/>
<path d="M57.567 490.05C58.8787 490.038 60.1615 489.596 61.2702 488.776C62.379 487.956 63.2697 486.789 63.8416 485.407C64.8231 482.732 65.3029 479.841 65.2484 476.929L68.1747 401.105L67.823 402.899C55.6196 425.315 49.68 451.62 50.8281 478.164C50.8455 480.738 51.3248 483.278 52.235 485.622C52.7359 486.823 53.4865 487.858 54.4181 488.632C55.3497 489.405 56.4324 489.893 57.567 490.05Z" fill="#37474F"/>
<path d="M72.1842 411.937C84.7756 432.12 100.321 452.467 125.223 465.9C128.431 467.628 133.115 468.402 135.774 465.9C136.579 464.97 137.086 463.743 137.209 462.427C137.332 461.111 137.064 459.785 136.45 458.673C135.133 456.414 133.39 454.539 131.357 453.191C112.111 438.145 93.8218 423.23 72.7189 411.558" fill="#37474F"/>
<path d="M95.5944 405.879C98.0222 407.016 100.619 407.575 103.234 407.525C105.85 407.311 108.538 405.632 109.269 402.932C109.503 401.786 109.47 400.587 109.173 399.46C108.876 398.334 108.326 397.321 107.581 396.528C106.019 394.862 104.187 393.58 102.193 392.759C87.1955 385.548 69.9755 385.96 54.2749 380.708L49.9418 378.585C63.9239 390.271 79.3085 399.469 95.5944 405.879Z" fill="#37474F"/>
<path d="M-46.7237 252.435C-29.4474 236.73 -9.23081 221.766 18.1186 216.218C21.6498 215.494 26.3487 216.218 28.2339 219.412C29.5141 221.618 28.7122 224.663 27.0381 226.556C25.1949 228.328 23.0441 229.609 20.7353 230.31C-1.57751 239.051 -23.0884 247.974 -46.3719 252.962" fill="#37474F"/>
<path d="M139.123 405.599C141.275 405.961 143.794 405.681 145.116 403.838C147.268 400.841 144.708 396.627 142.19 393.96C128.432 379.651 112.43 368.603 95.0739 361.431L91.9647 361.151C101.718 375.625 113.281 388.295 126.264 398.734C130.133 401.78 134.325 404.809 139.123 405.599Z" fill="#37474F"/>
<path d="M128.177 369.794C144.694 373.399 161.843 375.029 178.374 371.539C181.435 371.037 184.4 369.923 187.139 368.246C188.453 367.464 189.597 366.341 190.485 364.963C191.372 363.585 191.979 361.989 192.26 360.295C192.766 355.488 189.277 350.977 185.085 349.199C180.892 347.422 176.179 347.8 171.734 348.623C154.851 351.718 139.263 360.492 124.182 369.333" fill="#37474F"/>
<path d="M76.433 353.628C89.5303 346.277 101.786 337.03 112.913 326.103C114.312 324.873 115.509 323.356 116.444 321.626C116.898 320.786 117.152 319.82 117.18 318.827C117.207 317.834 117.006 316.851 116.599 315.979C115.901 314.973 114.976 314.216 113.929 313.794C112.882 313.372 111.755 313.302 110.676 313.592C108.517 314.189 106.489 315.311 104.725 316.884C92.1036 326.879 81.3409 339.758 73.0847 354.747" fill="#37474F"/>
<path d="M35.5636 312.275C50.634 317.541 66.4415 319.291 82.0885 317.428C84.0464 317.382 85.9701 316.819 87.716 315.782C88.5348 315.305 89.1879 314.513 89.5647 313.538C89.9416 312.563 90.0191 311.465 89.7841 310.431C88.9681 308.077 86.2388 307.353 83.9034 307.057C68.3716 305.117 52.6648 306.99 37.7865 312.555" fill="#37474F"/>
<path d="M62.4628 293.014C83.4954 281.145 97.0294 255.48 95.6928 230.046C95.51 226.474 94.4689 222.144 91.2331 221.222C87.9973 220.301 85.0288 223.626 83.3125 226.754C72.8736 245.982 74.8713 271.91 61.0981 288.503" fill="#37474F"/>
<path d="M36.5907 309.723C41.5907 299.094 43.6645 286.918 42.5289 274.859C41.3932 262.799 37.1035 251.444 30.2458 242.344C27.84 239.166 24.0134 235.973 20.5666 237.751C19.6421 238.287 18.8587 239.105 18.299 240.119C17.7393 241.134 17.4243 242.306 17.3871 243.512C17.3914 245.868 17.7732 248.202 18.5125 250.393L35.7466 311.929" fill="#37474F"/>
<path d="M21.4838 309.639C21.9444 308.684 22.1432 307.597 22.0635 306.472C21.9839 305.346 21.628 304.213 21.026 303.169C19.8096 301.197 18.2149 299.436 16.3461 298.001C-1.76018 282.801 -25.3612 276.338 -48.2545 272.751L-55.0712 272.858C-31.2458 279.642 -14.0701 301.977 9.10014 311.104C11.275 312.074 13.5684 312.603 15.8239 312.654C17.0139 312.656 18.1449 312.385 19.1273 311.862C20.1098 311.338 20.9166 310.577 21.4838 309.639Z" fill="#37474F"/>
<path d="M-299.309 372.861C-291.359 369.264 -283.619 365.305 -275.968 361.324C-265.636 355.895 -255.417 350.295 -245.255 344.61C-233.173 337.837 -221.164 330.965 -209.229 323.993C-196.037 316.307 -182.92 308.523 -169.881 300.644C-156.257 292.45 -142.709 284.16 -129.238 275.774C-115.767 267.388 -102.46 259.009 -89.319 250.638C-76.8342 242.631 -64.419 234.529 -52.0732 226.33C-41.1312 219.017 -30.2644 211.641 -19.573 204.115C-10.8505 197.961 -2.21 191.701 6.19126 185.163C12.1151 180.543 18.0037 175.838 23.3306 170.6C24.2393 169.71 25.1321 168.789 25.9781 167.846C26.1596 167.633 26.2346 167.345 26.1866 167.044C26.1387 166.743 25.9716 166.455 25.7224 166.243C25.4731 166.03 25.1619 165.911 24.8574 165.912C24.5528 165.912 24.2797 166.032 24.0983 166.245C19.5911 171.018 14.7046 175.432 9.47254 179.457C1.7256 185.684 -6.27649 191.601 -14.3606 197.411C-24.6154 204.754 -35.0183 211.916 -45.4724 218.96C-57.4959 227.052 -69.6027 235.029 -81.7925 242.893C-94.8176 251.314 -107.921 259.632 -121.101 267.846C-134.586 276.282 -148.142 284.633 -161.77 292.898C-174.989 300.92 -188.269 308.853 -201.61 316.697C-213.828 323.884 -226.105 330.977 -238.439 337.978C-249.097 344.017 -259.802 349.96 -270.631 355.743C-278.933 360.185 -287.302 364.552 -295.857 368.63C-297.498 369.414 -299.16 370.197 -300.816 370.949C-302.088 371.528 -300.627 373.494 -299.376 372.914L-299.309 372.861Z" fill="#37474F"/>
<path d="M-61.5205 232.42C-34.4562 240.833 -6.86803 245.387 20.3231 245.93C27.9396 246.122 35.4995 245.924 42.9719 245.336C44.4274 245.227 44.0659 242.96 42.6104 243.069C15.7748 244.92 -11.8464 242.592 -39.2621 236.169C-46.6332 234.499 -53.9665 232.522 -61.2621 230.238C-62.7446 229.77 -62.9689 231.963 -61.4863 232.431L-61.5205 232.42Z" fill="#37474F"/>
<path d="M64.942 308.122C65.7832 307.116 66.2791 305.853 66.3735 304.477C66.4679 303.101 66.1571 301.667 65.4763 300.335C64.0756 297.853 62.1858 295.613 59.9342 293.767L4.10638 242.375L5.24438 243.806C14.3972 267.631 30.5715 289.209 51.5239 305.546C53.4945 307.202 55.7395 308.484 58.1134 309.31C59.3529 309.708 60.6275 309.808 61.8206 309.6C63.0137 309.392 64.087 308.884 64.942 308.122Z" fill="#37474F"/>
<path d="M14.9527 246.346C38.482 249.846 64.0522 251.204 90.425 240.957C93.8208 239.636 97.4475 236.571 97.2666 232.924C97.0803 231.708 96.4751 230.527 95.5528 229.58C94.6305 228.633 93.4475 227.978 92.2027 227.724C89.629 227.262 87.0715 227.373 84.7271 228.047C60.7932 232.943 37.5799 237.195 15.0111 245.693" fill="#37474F"/>
<path d="M25.5199 224.595C27.9594 223.484 30.0693 221.87 31.7265 219.847C33.2603 217.716 33.7243 214.582 32.1433 212.274C31.4223 211.353 30.488 210.6 29.4379 210.096C28.3878 209.592 27.2604 209.354 26.1735 209.407C23.8918 209.516 21.7276 210.079 19.8097 211.065C4.59623 217.807 -6.25594 231.183 -20.4341 239.731L-24.8604 241.653C-6.89769 238.586 10.08 232.838 25.5199 224.595Z" fill="#37474F"/>
<path d="M53.5307 191.276C55.2021 189.872 56.6219 187.774 56.0757 185.571C55.1905 181.99 50.3219 181.207 46.6588 181.395C26.8445 182.59 8.05868 187.609 -8.65569 196.172L-10.8848 198.357C6.45848 200.317 23.6018 199.729 39.967 196.614C44.7941 195.644 49.8184 194.416 53.5307 191.276Z" fill="#37474F"/>
<path d="M19.1751 176.392C32.6291 166.156 44.9897 154.157 53.0513 139.309C54.6544 136.653 55.7289 133.674 56.2279 130.502C56.4844 128.994 56.3716 127.395 55.8981 125.826C55.4245 124.257 54.6026 122.759 53.4951 121.448C50.1639 117.945 44.4677 117.677 40.3958 119.716C36.3239 121.754 33.5562 125.588 31.3003 129.506C22.7099 144.365 19.2824 161.922 16.2335 179.135" fill="#37474F"/>
<path d="M-26.6829 205.303C-23.7867 190.566 -22.8798 175.24 -23.9837 159.684C-24.0129 157.821 -24.3922 155.927 -25.1029 154.092C-25.4474 153.202 -26.0184 152.383 -26.7567 151.718C-27.495 151.053 -28.3736 150.569 -29.3013 150.313C-30.5196 150.192 -31.6955 150.406 -32.6956 150.929C-33.6956 151.453 -34.4797 152.265 -34.9589 153.275C-35.9045 155.305 -36.3652 157.576 -36.3111 159.94C-36.886 176.029 -34.0595 192.574 -28.0017 208.578" fill="#37474F"/>
</svg>
