<svg width="805" height="937" viewBox="0 0 805 937" fill="none" xmlns="http://www.w3.org/2000/svg">
<path d="M704.411 93.8662C729.73 105.304 759.691 110.326 788.22 109.792C795.954 109.676 803.663 109.008 811.267 107.794C812.814 107.541 813.489 109.581 811.925 109.834C783.331 114.505 752.481 111.536 725.038 103.63C717.508 101.486 710.191 98.8278 703.16 95.681C701.761 95.0479 702.995 93.219 704.411 93.8662Z" fill="#37474F"/>
<path d="M747.574 107.288C758.472 112.535 769.897 117.023 781.964 119.035C794.031 121.047 806.805 120.442 818 115.757C820.979 114.519 824.239 112.409 824.156 109.356C824.068 108.238 823.592 107.169 822.788 106.284C821.985 105.4 820.891 104.74 819.646 104.39C817.249 103.819 814.73 103.733 812.287 104.136C792.203 106.261 772.087 111.002 752.036 108.596" fill="#37474F"/>
<path d="M712.839 122.116C722.394 132.785 733.967 142.014 747.081 149.423C760.413 157.224 774.922 163.443 790.212 167.909C798.02 170.208 806.06 171.884 814.23 172.918C815.876 173.115 815.119 175.141 813.571 174.958C798.139 172.888 783.174 168.793 769.206 162.816C754.438 156.773 740.725 149.003 728.462 139.73C721.88 134.753 715.912 129.214 710.65 123.199C709.712 122.102 711.852 121.061 712.79 122.13L712.839 122.116Z" fill="#37474F"/>
<path d="M749.517 148.72C755.938 166.073 768.478 181.306 785.421 192.332C787.315 193.586 789.376 194.644 791.561 195.484C796.171 197.144 800.78 193.092 799.151 188.745C798.393 186.745 797.141 184.907 795.479 183.357C791.94 180.022 787.248 178.095 782.738 175.914C769.65 169.445 758.405 160.575 749.813 149.944" fill="#37474F"/>
<path d="M746.735 148.101L804.155 131.852C806.377 131.044 808.794 130.706 811.201 130.867C812.433 131.015 813.577 131.497 814.466 132.241C815.354 132.985 815.941 133.953 816.139 135.003C816.403 137.409 814.279 139.434 812.123 140.771C807.387 143.477 802.072 145.356 796.484 146.3C780.53 149.624 763.999 150.43 747.706 148.678" fill="#37474F"/>
<path d="M844.899 178.925C844.63 179.951 844.077 180.907 843.287 181.712C842.496 182.518 841.491 183.149 840.355 183.554C838.151 184.266 835.794 184.573 833.441 184.454C809.802 184.285 787.644 173.903 767.889 161.79L762.769 157.288C785.306 167.572 812.864 161.705 836.421 169.781C838.706 170.452 840.795 171.536 842.545 172.96C843.452 173.73 844.138 174.67 844.546 175.705C844.955 176.74 845.076 177.843 844.899 178.925Z" fill="#37474F"/>
<path d="M718.338 139.73C715.17 152.24 710.337 164.4 703.933 175.971C697.638 187.748 690.065 198.996 681.314 209.567C677.155 214.602 672.589 219.382 667.651 223.874C666.548 224.859 664.803 223.368 665.906 222.383C675.065 213.918 683.062 204.586 689.743 194.569C697.577 183.312 704.148 171.446 709.366 159.131C712.109 152.617 714.309 145.946 715.951 139.167C716.264 137.831 718.651 138.393 718.338 139.73Z" fill="#37474F"/>
<path d="M641.673 -77.2081C645.394 -69.3156 648.719 -61.2824 651.962 -53.2914C656.308 -42.4586 660.457 -31.5695 664.506 -20.6523C669.313 -7.66228 674 5.35589 678.565 18.4022C683.624 32.8084 688.563 47.2381 693.381 61.6913C698.44 76.7635 703.379 91.8591 708.197 106.978C713.015 122.097 717.712 137.104 722.289 151.998C726.602 166.188 730.799 180.407 734.882 194.654C738.471 207.315 741.961 219.977 745.22 232.639C747.871 242.979 750.389 253.348 752.546 263.773C754.061 271.131 755.493 278.531 756.151 285.973C756.266 287.239 756.349 288.519 756.382 289.786C756.382 290.066 756.252 290.334 756.02 290.532C755.789 290.73 755.474 290.841 755.147 290.841C754.82 290.841 754.506 290.73 754.274 290.532C754.042 290.334 753.912 290.066 753.912 289.786C753.576 283.23 752.718 276.701 751.344 270.244C749.484 260.481 747.229 250.787 744.842 241.122C741.796 228.883 738.52 216.685 735.129 204.544C731.222 190.588 727.178 176.665 722.996 162.774C718.541 147.918 713.959 133.089 709.251 118.289C704.455 103.123 699.549 87.9762 694.533 72.8477C689.672 58.1695 684.705 43.5193 679.635 28.8974C674.993 15.504 670.246 2.14356 665.395 -11.1841C661.197 -22.6922 656.901 -34.1582 652.407 -45.5819C648.966 -54.3466 645.427 -63.0973 641.558 -71.7495C640.817 -73.4096 640.06 -75.0837 639.286 -76.7298C638.694 -77.9959 641.081 -78.5446 641.657 -77.2925L641.673 -77.2081Z" fill="#37474F"/>
<path d="M731.639 183.891C757.698 195.035 781.654 209.456 802.706 226.674C808.629 231.466 814.256 236.519 819.564 241.812C820.601 242.839 818.856 244.33 817.819 243.303C798.588 224.494 776.051 208.357 751.015 195.47C744.321 191.962 737.456 188.712 730.421 185.72C728.989 185.115 730.24 183.3 731.672 183.905L731.639 183.891Z" fill="#37474F"/>
<path d="M877 208.258C876.988 209.57 876.547 210.853 875.726 211.961C874.906 213.07 873.739 213.961 872.358 214.533C869.682 215.514 866.791 215.994 863.88 215.94L788.055 218.866L789.849 218.514C812.266 206.311 838.57 200.371 865.114 201.519C867.688 201.537 870.229 202.016 872.572 202.926C873.773 203.427 874.808 204.178 875.582 205.109C876.356 206.041 876.843 207.124 877 208.258Z" fill="#37474F"/>
<path d="M798.887 222.875C819.07 235.467 839.417 251.013 852.85 275.914C854.579 279.122 855.352 283.807 852.85 286.466C851.92 287.271 850.693 287.777 849.377 287.9C848.061 288.023 846.735 287.755 845.623 287.141C843.364 285.824 841.489 284.082 840.141 282.048C825.095 262.802 810.18 244.513 798.509 223.41" fill="#37474F"/>
<path d="M792.829 246.286C793.966 248.713 794.525 251.31 794.475 253.925C794.261 256.542 792.582 259.229 789.882 259.96C788.736 260.195 787.537 260.161 786.41 259.864C785.284 259.567 784.272 259.018 783.479 258.272C781.812 256.71 780.53 254.878 779.709 252.884C772.498 237.887 772.91 220.667 767.658 204.966L765.535 200.633C777.221 214.615 786.419 230 792.829 246.286Z" fill="#37474F"/>
<path d="M689.299 55.3183C669.127 71.3776 651.92 89.9577 638.266 110.425C634.315 116.324 630.66 122.346 627.302 128.489C626.627 129.713 624.503 128.644 625.178 127.42C636.933 105.831 652.379 85.8555 671.009 68.1489C676.277 63.1686 681.797 58.3946 687.57 53.827C688.722 52.8985 690.484 54.3897 689.315 55.3183H689.299Z" fill="#37474F"/>
<path d="M560.087 110.735C560.469 111.98 561.27 113.102 562.391 113.962C563.511 114.822 564.903 115.383 566.392 115.574C569.283 115.818 572.202 115.53 574.952 114.73L648.719 98.0587L646.892 98.1994C621.374 92.2288 594.305 93.2723 569.52 101.182C567.025 101.849 564.717 102.945 562.737 104.404C561.724 105.194 560.953 106.184 560.491 107.287C560.029 108.391 559.89 109.575 560.087 110.735Z" fill="#37474F"/>
<path d="M639.385 103.968C623.68 121.244 608.716 141.46 603.168 168.81C602.444 172.341 603.168 177.04 606.362 178.925C608.568 180.205 611.613 179.403 613.507 177.729C615.278 175.886 616.559 173.735 617.26 171.426C626.001 149.114 634.924 127.603 639.912 104.319" fill="#37474F"/>
<path d="M652.176 124.93C651.798 127.535 652.021 130.178 652.835 132.71C653.823 135.158 656.21 137.31 659.025 137.324C660.218 137.244 661.367 136.902 662.359 136.33C663.352 135.758 664.154 134.976 664.688 134.06C665.828 132.144 666.522 130.055 666.729 127.912C669.231 111.635 663.766 95.1887 664.177 78.7566L664.951 74.0436C657.867 90.3962 653.565 107.533 652.176 124.93Z" fill="#37474F"/>
<path d="M792.549 289.814C792.911 291.966 792.632 294.485 790.788 295.807C787.792 297.96 783.577 295.399 780.91 292.881C766.601 279.123 755.554 263.122 748.381 245.765L748.101 242.656C762.575 252.409 775.246 263.973 785.684 276.955C788.73 280.824 791.759 285.017 792.549 289.814Z" fill="#37474F"/>
<path d="M756.744 278.868C760.349 295.385 761.979 312.535 758.489 329.065C757.987 332.127 756.874 335.091 755.196 337.83C754.414 339.144 753.291 340.289 751.913 341.176C750.536 342.063 748.939 342.67 747.245 342.951C742.438 343.457 737.928 339.968 736.15 335.776C734.372 331.584 734.75 326.871 735.573 322.425C738.668 305.543 747.443 289.955 756.283 274.873" fill="#37474F"/>
<path d="M740.578 227.124C733.227 240.221 723.98 252.477 713.053 263.604C711.823 265.003 710.306 266.2 708.576 267.135C707.736 267.59 706.77 267.844 705.777 267.871C704.784 267.898 703.801 267.697 702.929 267.29C701.923 266.592 701.166 265.667 700.744 264.62C700.323 263.574 700.252 262.446 700.542 261.367C701.139 259.208 702.261 257.181 703.835 255.416C713.829 242.795 726.709 232.032 741.698 223.776" fill="#37474F"/>
<path d="M699.225 186.255C704.491 201.325 706.241 217.133 704.378 232.78C704.332 234.738 703.769 236.661 702.732 238.407C702.255 239.226 701.463 239.879 700.488 240.256C699.513 240.633 698.415 240.71 697.381 240.475C695.027 239.659 694.303 236.93 694.007 234.595C692.067 219.063 693.94 203.356 699.505 188.478" fill="#37474F"/>
<path d="M679.964 213.154C668.095 234.186 642.431 247.72 616.997 246.384C613.424 246.201 609.095 245.16 608.173 241.924C607.251 238.688 610.576 235.72 613.704 234.004C632.932 223.565 658.86 225.562 675.454 211.789" fill="#37474F"/>
<path d="M696.673 187.282C686.044 192.282 673.869 194.356 661.809 193.22C649.749 192.084 638.394 187.795 629.294 180.937C626.117 178.531 622.923 174.704 624.701 171.258C625.237 170.333 626.055 169.55 627.07 168.99C628.084 168.43 629.256 168.115 630.463 168.078C632.818 168.083 635.152 168.464 637.344 169.204L698.879 186.438" fill="#37474F"/>
<path d="M667.107 -13.1395C676.186 -3.85915 686.507 4.4795 697.859 11.7057C708.915 18.9167 720.808 25.1395 733.351 30.2762C739.515 32.8017 745.913 34.8863 752.48 36.5086C752.637 36.5456 752.784 36.6086 752.912 36.694C753.04 36.7794 753.147 36.8855 753.228 37.0064C753.308 37.1272 753.36 37.2603 753.38 37.3982C753.4 37.5361 753.388 37.6761 753.345 37.81C753.301 37.9439 753.228 38.0693 753.128 38.1789C753.028 38.2885 752.904 38.3802 752.762 38.4488C752.621 38.5174 752.465 38.5615 752.304 38.5786C752.142 38.5957 751.978 38.5855 751.822 38.5486C739.516 35.3594 727.746 30.8196 716.807 25.0427C704.32 18.7605 692.615 11.4068 681.874 3.09567C675.978 -1.47342 670.476 -6.40088 665.412 -11.6482C664.408 -12.6893 666.153 -14.1947 667.157 -13.1395H667.107Z" fill="#37474F"/>
<path d="M705.58 18.4445C708.79 33.7477 715.563 48.3441 725.499 61.3679C726.552 63.0092 728.048 64.4125 729.861 65.4618C730.755 65.9479 731.821 66.1494 732.872 66.031C733.922 65.9127 734.891 65.4821 735.607 64.8147C737.253 63.0279 736.43 60.3127 735.475 58.1462C729.038 43.7399 718.14 28.7428 705.58 18.4445Z" fill="#37474F"/>
<path d="M805.307 33.5964C783.824 46.3988 752.892 45.1326 731.508 32.1895L734.8 30.7826C756.514 35.2424 779.495 20.9346 801.735 21.3145C805.357 21.3145 809.785 22.3978 810.707 25.6758C811.629 28.9537 808.32 31.7956 805.307 33.5964Z" fill="#37474F"/>
<path d="M707.226 19.9639C731.096 19.2464 753.814 4.36177 762.637 -16.3613C764.152 -19.9066 764.926 -24.704 761.567 -26.8987C760.581 -27.4613 759.427 -27.7731 758.241 -27.798C757.055 -27.8229 755.885 -27.5598 754.867 -27.0394C752.799 -25.9455 750.972 -24.5504 749.468 -22.9173C734.652 -8.52508 720.445 4.06631 705.563 18.4444" fill="#37474F"/>
<path d="M736.858 103.137C755.32 95.1351 772.228 84.7476 786.985 72.3412C788.763 70.85 790.738 69.2461 793.125 69.218C796.55 69.218 799.068 72.693 798.838 75.8866C798.368 78.9985 796.721 81.8938 794.146 84.1307C786.786 91.0239 777.419 96.126 767 98.9169C756.892 101.857 746.34 103.137 735.837 104.544" fill="#37474F"/>
<path d="M594.547 63.3653C598.382 77.4993 606.458 91.2111 616.359 102.385C619.031 105.425 621.924 108.259 625.008 110.858C625.638 111.384 625.019 112.375 624.383 111.842C612.741 102.106 603.509 88.7675 597.486 75.0378C595.823 71.2794 594.446 67.4242 593.368 63.5095C593.157 62.728 594.336 62.5723 594.547 63.3653Z" fill="#37474F"/>
<path d="M603.611 85.3091C605.127 91.5076 607.137 97.647 610.394 103.166C613.652 108.684 618.237 113.558 623.982 116.358C625.507 117.107 627.49 117.658 628.731 116.544C629.166 116.114 629.449 115.545 629.544 114.912C629.639 114.279 629.542 113.609 629.265 112.99C628.689 111.833 627.871 110.799 626.874 109.969C619.178 102.722 610.383 96.3874 604.581 87.5493" fill="#37474F"/>
<path d="M585.664 76.7235C584.47 84.3061 584.56 92.1832 585.929 100.03C587.209 108.102 589.547 116.083 592.877 123.754C594.57 127.677 596.601 131.473 598.943 135.093C599.42 135.819 598.321 136.234 597.872 135.553C593.497 128.674 590.122 121.263 587.868 113.584C585.37 105.562 583.948 97.3492 583.642 89.1819C583.478 84.7985 583.756 80.4603 584.471 76.2349C584.609 75.4727 585.767 75.9565 585.641 76.7088L585.664 76.7235Z" fill="#37474F"/>
<path d="M587.048 100.751C582.013 109.452 579.935 119.84 581.1 130.492C581.221 131.69 581.481 132.886 581.873 134.053C582.747 136.477 585.995 136.879 587.249 134.69C587.823 133.681 588.162 132.531 588.243 131.321C588.428 128.73 587.638 126.179 587.014 123.611C585.263 116.108 585.135 108.488 586.64 101.302" fill="#37474F"/>
<path d="M586.361 99.4238L612.595 116.542C613.684 117.141 614.645 117.984 615.395 119C615.751 119.543 615.939 120.169 615.931 120.787C615.923 121.404 615.72 121.98 615.351 122.431C614.44 123.388 612.878 123.259 611.59 122.873C608.859 121.945 606.275 120.493 603.987 118.602C597.193 113.424 591.25 107.125 586.451 100.015" fill="#37474F"/>
<path d="M606.85 149.436C606.333 149.692 605.748 149.81 605.145 149.78C604.542 149.751 603.938 149.574 603.385 149.265C602.341 148.639 601.414 147.809 600.665 146.83C592.716 137.354 589.514 124.852 587.848 112.696L587.982 109.063C591.353 121.68 603.14 130.58 607.775 142.822C608.271 143.969 608.529 145.185 608.531 146.386C608.519 147.02 608.361 147.626 608.069 148.155C607.777 148.685 607.36 149.123 606.85 149.436Z" fill="#37474F"/>
<path d="M580.208 85.1494C573.933 88.3166 567.239 90.6963 560.257 92.2423C553.226 93.9042 545.981 94.8699 538.619 95.1268C535.115 95.2525 531.579 95.1266 528.036 94.7498C527.253 94.6591 527.281 93.4361 528.064 93.5268C534.69 94.1779 541.282 94.0597 547.712 93.1746C555.049 92.3096 562.21 90.7257 569.1 88.4442C572.738 87.2309 576.257 85.7456 579.632 83.9994C580.293 83.6509 580.869 84.8009 580.208 85.1494Z" fill="#37474F"/>
<path d="M644.374 -22.1885C642.355 -17.9125 640.144 -13.744 637.923 -9.62326C634.894 -4.0571 631.776 1.45029 628.611 6.92831C624.843 13.4418 621.021 19.9171 617.147 26.3543C612.875 33.4697 608.553 40.5453 604.179 47.5812C599.631 54.9323 595.031 62.2437 590.381 69.5152C585.731 76.7868 581.087 83.9704 576.449 91.0662C572.013 97.8079 567.527 104.514 562.99 111.184C558.944 117.096 554.865 122.968 550.708 128.749C547.309 133.466 543.854 138.14 540.252 142.689C537.707 145.897 535.117 149.088 532.247 151.985C531.76 152.479 531.256 152.965 530.74 153.426C530.624 153.525 530.468 153.569 530.308 153.546C530.147 153.524 529.994 153.439 529.883 153.308C529.772 153.178 529.712 153.013 529.715 152.851C529.719 152.689 529.786 152.542 529.903 152.443C532.514 149.988 534.936 147.335 537.154 144.502C540.582 140.304 543.846 135.974 547.053 131.602C551.108 126.056 555.067 120.432 558.963 114.783C563.438 108.286 567.854 101.746 572.209 95.1633C576.873 88.1289 581.482 81.0543 586.037 73.9393C590.714 66.6599 595.346 59.3434 599.933 51.9898C604.385 44.8568 608.79 37.6922 613.148 30.4961C617.14 23.9054 621.083 17.2849 624.977 10.6344C628.337 4.88817 631.645 -0.882449 634.869 -6.71681C637.345 -11.1902 639.782 -15.6979 642.066 -20.3019C642.505 -21.1847 642.944 -22.079 643.365 -22.9699C643.691 -23.6543 644.728 -22.8977 644.403 -22.225L644.374 -22.1885Z" fill="#37474F"/>
<path d="M566.363 106.082C570.572 120.406 572.704 135.054 572.689 149.535C572.706 153.59 572.515 157.62 572.115 161.608C572.04 162.385 570.829 162.218 570.904 161.441C572.198 147.123 571.26 132.433 568.124 117.898C567.311 113.99 566.333 110.105 565.19 106.244C564.956 105.459 566.134 105.315 566.369 106.1L566.363 106.082Z" fill="#37474F"/>
<path d="M605.547 172.607C604.998 173.066 604.315 173.345 603.576 173.41C602.837 173.476 602.071 173.327 601.364 172.979C600.049 172.261 598.868 171.279 597.903 170.1L570.964 140.935L571.719 141.525C584.396 146.133 595.789 154.508 604.316 165.487C605.182 166.518 605.845 167.7 606.261 168.955C606.461 169.611 606.5 170.289 606.375 170.927C606.25 171.565 605.966 172.143 605.547 172.607Z" fill="#37474F"/>
<path d="M572.972 146.669C574.585 159.165 575.026 172.773 569.232 186.94C568.485 188.764 566.801 190.73 564.846 190.675C564.196 190.589 563.57 190.28 563.072 189.8C562.574 189.319 562.236 188.696 562.114 188.036C561.895 186.67 561.983 185.306 562.371 184.049C565.267 171.242 567.809 158.827 572.622 146.707" fill="#37474F"/>
<path d="M561.186 152.543C560.563 153.856 559.673 154.998 558.569 155.904C557.409 156.745 555.723 157.027 554.503 156.211C554.016 155.837 553.623 155.348 553.365 154.794C553.106 154.24 552.991 153.642 553.032 153.063C553.116 151.846 553.442 150.686 553.993 149.653C557.781 141.472 565.078 135.54 569.823 127.89L570.903 125.51C569.056 135.114 565.781 144.225 561.186 152.543Z" fill="#37474F"/>
<path d="M605.443 43.6988C591.925 41.3497 578.365 41.0741 565.225 42.8814C561.432 43.3962 557.69 44.0723 553.997 44.9096C553.259 45.0741 552.983 43.8497 553.721 43.6852C566.683 40.7242 580.225 39.8046 593.906 40.9564C597.763 41.2915 601.62 41.8001 605.477 42.4824C606.254 42.6127 606.231 43.8422 605.449 43.7054L605.443 43.6988Z" fill="#37474F"/>
<path d="M538.575 11.8518C538.187 12.4448 537.992 13.1611 538.015 13.912C538.037 14.6628 538.276 15.4154 538.702 16.0765C539.581 17.3145 540.691 18.3752 541.957 19.1873L573.911 42.6671L573.233 41.9891C567.058 29.7114 557.441 19.2989 545.745 12.2271C544.622 11.4694 543.383 10.9382 542.105 10.6662C541.433 10.5422 540.76 10.5855 540.145 10.7922C539.529 10.9988 538.99 11.3627 538.575 11.8518Z" fill="#37474F"/>
<path d="M568.289 41.041C555.78 40.9019 542.3 42.0988 529.05 49.5715C527.336 50.5331 525.629 52.4852 525.929 54.4247C526.145 55.7566 527.511 56.6857 528.849 56.8471C530.217 56.9001 531.545 56.6489 532.743 56.1107C544.983 51.6931 556.951 47.6316 568.321 41.3754" fill="#37474F"/>
<path d="M563.915 53.5572C562.703 54.3287 561.681 55.3536 560.904 56.5738C560.222 57.8338 560.137 59.5467 561.086 60.6729C561.524 61.12 562.056 61.4563 562.631 61.6491C563.205 61.8419 563.802 61.8846 564.364 61.773C565.547 61.5488 566.651 61.0857 567.612 60.4095C575.227 55.6435 580.209 47.6442 587.179 41.9907L589.4 40.6304C580.2 43.598 571.617 47.9513 563.915 53.5572Z" fill="#37474F"/>
<path d="M542.998 167.842C542.226 168.748 541.084 169.529 539.909 169.262C537.998 168.831 537.633 166.246 537.775 164.292C538.639 153.722 541.543 143.657 546.324 134.655L547.522 133.443C548.377 142.661 547.869 151.801 546.014 160.556C545.439 163.138 544.724 165.829 542.998 167.842Z" fill="#37474F"/>
<path d="M535.401 149.706C529.759 156.989 523.183 163.709 515.128 168.172C513.685 169.056 512.075 169.662 510.368 169.963C509.556 170.117 508.7 170.075 507.863 169.84C507.027 169.605 506.233 169.184 505.542 168.609C503.701 166.874 503.621 163.842 504.76 161.65C505.9 159.457 507.987 157.939 510.114 156.693C518.182 151.949 527.638 149.926 536.906 148.107" fill="#37474F"/>
<path d="M551.425 124.948C543.488 126.657 535.256 127.312 526.924 126.899C525.926 126.905 524.914 126.724 523.938 126.366C523.464 126.193 523.031 125.898 522.683 125.512C522.334 125.126 522.084 124.663 521.958 124.172C521.907 123.524 522.034 122.895 522.326 122.356C522.618 121.818 523.063 121.391 523.61 121.124C524.71 120.598 525.933 120.327 527.2 120.329C535.837 119.841 544.68 121.161 553.197 124.208" fill="#37474F"/>
<path d="M554.385 94.0078C549.907 101.44 543.93 107.734 536.794 112.531C535.965 113.206 534.974 113.663 533.896 113.868C533.394 113.968 532.854 113.883 532.367 113.628C531.879 113.374 531.475 112.964 531.222 112.469C530.762 111.242 531.651 109.988 532.521 109.043C538.319 102.772 545.484 97.9569 553.556 94.9062" fill="#37474F"/>
<path d="M536.67 95.8591C523.901 98.5776 509.569 93.1466 501.496 82.5429C500.36 81.0552 499.324 78.9622 500.356 77.4494C501.388 75.9367 503.75 76.2103 505.525 76.8485C516.387 80.8114 524.352 91.846 535.707 93.5794" fill="#37474F"/>
<path d="M553.092 93.355C547.408 90.8916 542.416 86.776 538.797 81.5705C535.177 76.3649 533.108 70.3233 532.872 64.2709C532.794 62.1537 533.301 59.5269 535.337 59.0148C535.903 58.901 536.506 58.9496 537.083 59.1555C537.66 59.3613 538.188 59.7167 538.613 60.1841C539.411 61.124 540.044 62.1888 540.48 63.3234L554.192 93.9348" fill="#37474F"/>
<path d="M626.371 10.6241C625.593 17.5259 625.629 24.5889 626.476 31.6685C627.229 38.6254 628.677 45.5655 630.797 52.3799C631.838 55.7291 633.142 59.0156 634.696 62.2056C634.734 62.2811 634.757 62.3618 634.765 62.4431C634.773 62.5244 634.766 62.6048 634.743 62.6795C634.72 62.7543 634.682 62.822 634.631 62.8787C634.581 62.9355 634.518 62.9803 634.448 63.0105C634.378 63.0407 634.301 63.0557 634.221 63.0548C634.142 63.0538 634.061 63.0368 633.985 63.0047C633.908 62.9727 633.837 62.9262 633.775 62.868C633.714 62.8098 633.662 62.741 633.624 62.6655C630.775 56.6349 628.67 50.3397 627.36 43.9373C625.735 36.7397 624.821 29.4742 624.632 22.2535C624.531 18.2874 624.713 14.3516 625.176 10.4767C625.268 9.70819 626.486 9.87028 626.388 10.6438L626.371 10.6241Z" fill="#37474F"/>
<path d="M626.294 37.1294C621.022 43.8258 617.252 51.6913 615.209 60.2594C614.884 61.26 614.808 62.3525 614.988 63.4464C615.089 63.9746 615.367 64.4704 615.772 64.847C616.178 65.2235 616.685 65.4567 617.206 65.5057C618.507 65.5288 619.356 64.2397 619.933 63.0924C623.737 55.4284 626.274 45.7783 626.294 37.1294Z" fill="#37474F"/>
<path d="M653.828 82.2159C641.218 78.1915 631.251 65.4226 629.376 52.3228L631.078 53.1361C636.59 63.3637 650.334 67.452 657.721 76.445C658.949 77.8875 660.001 80.0348 658.952 81.5625C657.902 83.0902 655.598 82.7783 653.828 82.2159Z" fill="#37474F"/>
<path d="M626.221 38.323C634.617 47.5767 648.511 51.3558 660.118 47.5338C662.105 46.882 664.362 45.4917 664.135 43.3771C664.034 42.7849 663.772 42.2151 663.38 41.7339C662.988 41.2527 662.482 40.8799 661.92 40.6586C660.764 40.2222 659.564 39.9882 658.375 39.9672C647.367 39.1612 637.313 37.9601 626.288 37.1228" fill="#37474F"/>
<path d="M601.701 79.5714C611.29 84.092 621.344 87.149 631.507 88.6348C632.73 88.8151 634.067 89.0341 634.888 89.9749C636.05 91.3387 635.46 93.5722 634.054 94.611C632.601 95.5258 630.839 95.8945 629.036 95.6609C623.674 95.1698 618.375 93.2451 613.68 90.0831C609.029 87.0981 604.917 83.3483 600.77 79.663" fill="#37474F"/>
<path d="M412.839 -6.884C422.394 3.78464 433.967 13.0141 447.081 20.4232C460.413 28.2244 474.922 34.4431 490.212 38.9093C498.02 41.2077 506.06 42.8843 514.23 43.9177C515.876 44.1147 515.119 46.1406 513.571 45.9577C498.139 43.8882 483.174 39.7928 469.206 33.8165C454.438 27.7728 440.725 20.0028 428.462 10.7299C421.88 5.75341 415.912 0.214346 410.65 -5.80073C409.712 -6.89808 411.852 -7.93913 412.79 -6.86992L412.839 -6.884Z" fill="#37474F"/>
<path d="M449.517 19.7197C455.938 37.073 468.478 52.3059 485.421 63.3324C487.315 64.5861 489.376 65.6438 491.561 66.4838C496.171 68.1439 500.78 64.0921 499.151 59.7449C498.393 57.7446 497.141 55.907 495.479 54.3566C491.94 51.0224 487.248 49.095 482.738 46.9143C469.65 40.4453 458.405 31.5753 449.813 20.9437" fill="#37474F"/>
<path d="M446.735 19.1007L504.155 2.85152C506.377 2.04386 508.794 1.70602 511.201 1.8667C512.433 2.01526 513.577 2.49689 514.466 3.24115C515.354 3.9854 515.941 4.95319 516.139 6.00288C516.403 8.40861 514.279 10.4345 512.123 11.771C507.387 14.4769 502.072 16.3559 496.484 17.3C480.53 20.6242 463.999 21.4299 447.706 19.6776" fill="#37474F"/>
<path d="M544.899 49.9251C544.63 50.951 544.077 51.9068 543.287 52.7122C542.496 53.5176 541.491 54.1491 540.355 54.5537C538.151 55.2664 535.794 55.5733 533.441 55.4541C509.802 55.2852 487.644 44.9026 467.889 32.7895L462.769 28.2876C485.306 38.5717 512.864 32.7051 536.421 40.7805C538.706 41.4518 540.795 42.5363 542.545 43.96C543.452 44.7297 544.138 45.6695 544.546 46.7049C544.955 47.7403 545.076 48.8429 544.899 49.9251Z" fill="#37474F"/>
<path d="M418.338 10.7299C415.17 23.2402 410.337 35.3996 403.933 46.9707C397.638 58.7483 390.065 69.996 381.314 80.5665C377.155 85.6016 372.589 90.3825 367.651 94.8743C366.548 95.8591 364.803 94.3678 365.906 93.383C375.065 84.9177 383.062 75.586 389.743 65.5694C397.577 54.3118 404.148 42.446 409.366 30.1305C412.109 23.6171 414.309 16.946 415.951 10.1672C416.264 8.83065 418.651 9.39339 418.338 10.7299Z" fill="#37474F"/>
<path d="M341.673 -206.208C345.394 -198.316 348.719 -190.282 351.962 -182.291C356.308 -171.459 360.457 -160.57 364.506 -149.652C369.313 -136.662 374 -123.644 378.565 -110.598C383.624 -96.1916 388.563 -81.7619 393.381 -67.3087C398.44 -52.2365 403.379 -37.1409 408.197 -22.0219C413.015 -6.90279 417.712 8.10373 422.289 22.9977C426.602 37.1882 430.799 51.4069 434.882 65.6537C438.471 78.3155 441.961 90.9772 445.22 103.639C447.871 113.979 450.389 124.348 452.546 134.773C454.061 142.131 455.493 149.531 456.151 156.973C456.266 158.239 456.349 159.519 456.382 160.786C456.382 161.066 456.252 161.334 456.02 161.532C455.789 161.73 455.474 161.841 455.147 161.841C454.82 161.841 454.506 161.73 454.274 161.532C454.042 161.334 453.912 161.066 453.912 160.786C453.576 154.23 452.718 147.701 451.344 141.244C449.484 131.481 447.229 121.787 444.842 112.122C441.796 99.8827 438.52 87.6852 435.129 75.544C431.222 61.5879 427.178 47.6647 422.996 33.7743C418.541 18.9178 413.959 4.0895 409.251 -10.7107C404.455 -25.8766 399.549 -41.0238 394.533 -56.1523C389.672 -70.8305 384.705 -85.4807 379.635 -100.103C374.993 -113.496 370.246 -126.856 365.395 -140.184C361.197 -151.692 356.901 -163.158 352.407 -174.582C348.966 -183.347 345.427 -192.097 341.558 -200.749C340.817 -202.41 340.06 -204.084 339.286 -205.73C338.694 -206.996 341.081 -207.545 341.657 -206.292L341.673 -206.208Z" fill="#37474F"/>
<path d="M431.639 54.8913C457.698 66.0351 481.654 80.4564 502.706 97.6739C508.629 102.466 514.256 107.519 519.564 112.812C520.601 113.839 518.856 115.33 517.819 114.303C498.588 95.4942 476.051 79.3568 451.015 66.4697C444.321 62.9619 437.456 59.7121 430.421 56.7202C428.989 56.1152 430.24 54.3004 431.672 54.9053L431.639 54.8913Z" fill="#37474F"/>
<path d="M577 79.2581C576.988 80.5699 576.547 81.8526 575.726 82.9614C574.906 84.0701 573.739 84.9608 572.358 85.5327C569.682 86.5143 566.791 86.994 563.88 86.9396L488.055 89.8658L489.849 89.5141C512.266 77.3107 538.57 71.3712 565.114 72.5192C567.688 72.5366 570.229 73.0159 572.572 73.9261C573.773 74.427 574.808 75.1777 575.582 76.1093C576.356 77.0409 576.843 78.1236 577 79.2581Z" fill="#37474F"/>
<path d="M498.887 93.8755C519.07 106.467 539.417 122.013 552.85 146.914C554.579 150.122 555.352 154.807 552.85 157.466C551.92 158.271 550.693 158.777 549.377 158.9C548.061 159.023 546.735 158.755 545.623 158.141C543.364 156.824 541.489 155.082 540.141 153.048C525.095 133.802 510.18 115.513 498.509 94.4101" fill="#37474F"/>
<path d="M492.829 117.286C493.966 119.713 494.525 122.31 494.475 124.925C494.261 127.542 492.582 130.229 489.882 130.96C488.736 131.195 487.537 131.161 486.41 130.864C485.284 130.567 484.272 130.018 483.479 129.272C481.812 127.71 480.53 125.878 479.709 123.884C472.498 108.887 472.91 91.6667 467.658 75.9661L465.535 71.633C477.221 85.6151 486.419 101 492.829 117.286Z" fill="#37474F"/>
<path d="M389.299 -73.6817C369.127 -57.6224 351.92 -39.0423 338.266 -18.575C334.315 -12.6755 330.66 -6.65416 327.302 -0.510867C326.627 0.713102 324.503 -0.356126 325.178 -1.5801C336.933 -23.1691 352.379 -43.1445 371.009 -60.8511C376.277 -65.8314 381.797 -70.6054 387.57 -75.173C388.722 -76.1015 390.484 -74.6103 389.315 -73.6817H389.299Z" fill="#37474F"/>
<path d="M339.385 -25.0325C323.68 -7.75622 308.716 12.4604 303.168 39.8097C302.444 43.341 303.168 48.0399 306.362 49.9251C308.568 51.2053 311.613 50.4034 313.507 48.7292C315.278 46.886 316.559 44.7353 317.26 42.4265C326.001 20.1137 334.924 -1.39721 339.912 -24.6808" fill="#37474F"/>
<path d="M352.176 -4.07022C351.798 -1.46508 352.021 1.17826 352.835 3.70972C353.823 6.15765 356.21 8.31015 359.025 8.32422C360.218 8.24444 361.367 7.90186 362.359 7.32987C363.352 6.75787 364.154 5.97596 364.688 5.06029C365.828 3.14355 366.522 1.05541 366.729 -1.08768C369.231 -17.3651 363.766 -33.8113 364.177 -50.2434L364.951 -54.9564C357.867 -38.6038 353.565 -21.4671 352.176 -4.07022Z" fill="#37474F"/>
<path d="M492.549 160.814C492.911 162.966 492.632 165.485 490.788 166.807C487.792 168.96 483.577 166.399 480.91 163.881C466.601 150.123 455.554 134.122 448.381 116.765L448.101 113.656C462.575 123.409 475.246 134.973 485.684 147.955C488.73 151.824 491.759 156.017 492.549 160.814Z" fill="#37474F"/>
<path d="M456.744 149.868C460.349 166.385 461.979 183.535 458.489 200.065C457.987 203.127 456.874 206.091 455.196 208.83C454.414 210.144 453.291 211.289 451.913 212.176C450.536 213.063 448.939 213.67 447.245 213.951C442.438 214.457 437.928 210.968 436.15 206.776C434.372 202.584 434.75 197.871 435.573 193.425C438.668 176.543 447.443 160.955 456.283 145.873" fill="#37474F"/>
<path d="M440.578 98.1242C433.227 111.221 423.98 123.477 413.053 134.604C411.823 136.003 410.306 137.2 408.576 138.135C407.736 138.59 406.77 138.844 405.777 138.871C404.784 138.898 403.801 138.697 402.929 138.29C401.923 137.592 401.166 136.667 400.744 135.62C400.323 134.574 400.252 133.446 400.542 132.367C401.139 130.208 402.261 128.181 403.835 126.416C413.829 113.795 426.709 103.032 441.698 94.7759" fill="#37474F"/>
<path d="M399.225 57.2548C404.491 72.3252 406.241 88.1327 404.378 103.78C404.332 105.738 403.769 107.661 402.732 109.407C402.255 110.226 401.463 110.879 400.488 111.256C399.513 111.633 398.415 111.71 397.381 111.475C395.027 110.659 394.303 107.93 394.007 105.595C392.067 90.0627 393.94 74.356 399.505 59.4776" fill="#37474F"/>
<path d="M379.964 84.1539C368.095 105.186 342.431 118.72 316.997 117.384C313.424 117.201 309.095 116.16 308.173 112.924C307.251 109.688 310.576 106.72 313.704 105.004C332.932 94.5647 358.86 96.5624 375.454 82.7892" fill="#37474F"/>
<path d="M396.673 58.2819C386.044 63.2818 373.869 65.3556 361.809 64.22C349.749 63.0844 338.394 58.7947 329.294 51.9369C326.117 49.5312 322.923 45.7045 324.701 42.2577C325.237 41.3333 326.055 40.5498 327.07 39.9901C328.084 39.4305 329.256 39.1154 330.463 39.0782C332.818 39.0826 335.152 39.4643 337.344 40.2037L398.879 57.4377" fill="#37474F"/>
<path d="M267.26 -102.888C265.333 -88.6966 265.811 -73.9017 268.673 -59.1141C271.379 -43.9061 276.052 -28.8278 282.566 -14.2922C285.879 -6.85742 289.816 0.350764 294.327 7.24031C295.244 8.62128 293.211 9.35838 292.347 8.06173C283.916 -5.02859 277.33 -19.077 272.823 -33.5861C267.848 -48.7478 264.872 -64.2254 263.98 -79.5737C263.501 -87.8111 263.848 -95.9464 265.016 -103.852C265.243 -105.278 267.423 -104.324 267.217 -102.916L267.26 -102.888Z" fill="#37474F"/>
<path d="M270.788 -57.7154C261.74 -41.5756 258.275 -22.1515 260.866 -2.10317C261.14 0.151807 261.671 2.40681 262.449 4.61486C264.174 9.2004 270.247 10.0823 272.5 6.02288C273.532 4.14928 274.119 2.00458 274.222 -0.265681C274.465 -5.12214 272.89 -9.94366 271.626 -14.7915C268.064 -28.9496 267.526 -43.2617 270.049 -56.6962" fill="#37474F"/>
<path d="M309.639 34.4838C308.684 34.9444 307.598 35.1432 306.472 35.0635C305.346 34.9838 304.213 34.628 303.169 34.0259C301.197 32.8096 299.436 31.2148 298.001 29.3461C282.801 11.2398 276.338 -12.3612 272.751 -35.2545L272.858 -42.0713C279.642 -18.2458 301.977 -1.07015 311.104 22.1001C312.074 24.275 312.603 26.5683 312.654 28.8239C312.656 30.0139 312.385 31.1449 311.862 32.1273C311.339 33.1098 310.578 33.9166 309.639 34.4838Z" fill="#37474F"/>
<path d="M372.861 -286.309C369.264 -278.359 365.305 -270.619 361.324 -262.968C355.895 -252.636 350.295 -242.417 344.61 -232.255C337.837 -220.173 330.965 -208.164 323.993 -196.229C316.306 -183.037 308.523 -169.921 300.644 -156.881C292.45 -143.257 284.16 -129.709 275.774 -116.238C267.388 -102.767 259.009 -89.4604 250.638 -76.319C242.631 -63.8343 234.529 -51.4191 226.33 -39.0733C219.017 -28.1313 211.641 -17.2645 204.115 -6.57309C197.961 2.14942 191.701 10.7899 185.163 19.1912C180.543 25.1151 175.838 31.0036 170.599 36.3306C169.71 37.2393 168.789 38.132 167.846 38.9781C167.633 39.1595 167.345 39.2345 167.044 39.1866C166.743 39.1386 166.455 38.9716 166.243 38.7223C166.03 38.473 165.911 38.1619 165.912 37.8573C165.912 37.5527 166.032 37.2796 166.245 37.0982C171.018 32.5911 175.432 27.7045 179.457 22.4725C185.684 14.7255 191.601 6.72345 197.411 -1.36068C204.754 -11.6155 211.916 -22.0183 218.96 -32.4724C227.052 -44.496 235.029 -56.6027 242.893 -68.7926C251.314 -81.8177 259.632 -94.9206 267.846 -108.101C276.282 -121.586 284.633 -135.142 292.898 -148.77C300.92 -161.989 308.853 -175.269 316.697 -188.61C323.883 -200.828 330.977 -213.105 337.978 -225.439C344.017 -236.097 349.96 -246.802 355.743 -257.631C360.185 -265.933 364.552 -274.302 368.63 -282.857C369.414 -284.498 370.197 -286.16 370.949 -287.816C371.528 -289.088 373.494 -287.627 372.914 -286.376L372.861 -286.309Z" fill="#37474F"/>
<path d="M232.42 -48.5205C240.833 -21.4562 245.387 6.13197 245.93 33.3231C246.122 40.9396 245.924 48.4995 245.336 55.9719C245.227 57.4274 242.96 57.0659 243.069 55.6104C244.92 28.7748 242.592 1.15365 236.169 -26.2621C234.499 -33.6332 232.522 -40.9665 230.238 -48.2621C229.77 -49.7446 231.963 -49.9689 232.431 -48.4863L232.42 -48.5205Z" fill="#37474F"/>
<path d="M308.122 77.9419C307.116 78.7832 305.853 79.279 304.477 79.3734C303.101 79.4678 301.667 79.1571 300.335 78.4762C297.853 77.0756 295.613 75.1857 293.767 72.9341L242.375 17.1063L243.806 18.2443C267.631 27.3971 289.209 43.5714 305.546 64.5239C307.202 66.4945 308.484 68.7395 309.31 71.1134C309.708 72.3528 309.808 73.6275 309.6 74.8206C309.392 76.0136 308.884 77.0869 308.122 77.9419Z" fill="#37474F"/>
<path d="M246.346 27.9526C249.846 51.4819 251.204 77.0522 240.957 103.425C239.636 106.821 236.571 110.447 232.924 110.267C231.708 110.08 230.527 109.475 229.58 108.553C228.633 107.63 227.978 106.447 227.724 105.203C227.262 102.629 227.373 100.071 228.047 97.727C232.943 73.7931 237.195 50.5799 245.693 28.0111" fill="#37474F"/>
<path d="M224.595 38.5199C223.484 40.9594 221.87 43.0693 219.847 44.7265C217.716 46.2603 214.582 46.7242 212.274 45.1432C211.353 44.4223 210.6 43.488 210.096 42.4379C209.592 41.3878 209.354 40.2604 209.407 39.1734C209.516 36.8918 210.079 34.7276 211.065 32.8097C217.807 17.5962 231.183 6.74403 239.731 -7.43416L241.653 -11.8605C238.586 6.10228 232.838 23.08 224.595 38.5199Z" fill="#37474F"/>
<path d="M191.276 66.5307C189.872 68.2021 187.773 69.6219 185.571 69.0757C181.99 68.1905 181.207 63.3219 181.394 59.6588C182.59 39.8445 187.609 21.0587 196.172 4.34431L198.357 2.11525C200.317 19.4585 199.729 36.6018 196.614 52.967C195.643 57.7941 194.416 62.8184 191.276 66.5307Z" fill="#37474F"/>
<path d="M176.392 32.1751C166.156 45.6291 154.157 57.9898 139.309 66.0513C136.653 67.6544 133.674 68.7289 130.502 69.2279C128.994 69.4845 127.395 69.3716 125.826 68.8981C124.257 68.4245 122.759 67.6027 121.448 66.4951C117.945 63.164 117.677 57.4677 119.716 53.3958C121.754 49.3239 125.588 46.5563 129.506 44.3003C144.365 35.7099 161.922 32.2824 179.135 29.2335" fill="#37474F"/>
<path d="M205.303 -13.6829C190.566 -10.7867 175.24 -9.8799 159.684 -10.9838C157.821 -11.013 155.927 -11.3922 154.092 -12.103C153.202 -12.4474 152.383 -13.0185 151.718 -13.7568C151.053 -14.495 150.569 -15.3736 150.313 -16.3013C150.192 -17.5197 150.406 -18.6956 150.929 -19.6956C151.453 -20.6957 152.265 -21.4798 153.275 -21.959C155.305 -22.9046 157.576 -23.3653 159.94 -23.3111C176.029 -23.886 192.574 -21.0595 208.578 -15.0018" fill="#37474F"/>
<path d="M624.768 218.272C610.14 223.29 593.678 223.896 578.533 221.143C574.425 220.415 570.384 219.343 566.454 217.939C565.655 217.649 565.092 218.87 565.9 219.161C580.668 224.51 597.399 225.265 612.806 222.639C617.032 221.934 621.194 220.889 625.253 219.514C626.062 219.236 625.586 217.986 624.768 218.272Z" fill="#37474F"/>
<path d="M600.436 223.02C594.107 225.383 587.574 227.225 580.945 227.463C574.316 227.7 567.571 226.239 562.074 222.356C560.61 221.328 559.084 219.73 559.432 217.825C559.59 217.132 559.951 216.503 560.467 216.017C560.983 215.531 561.632 215.21 562.33 215.096C563.663 214.942 565.014 215.102 566.275 215.561C576.763 218.594 587.007 223.269 597.929 223.461" fill="#37474F"/>
<path d="M617.463 235.251C611.31 241.123 604.225 245.923 596.5 249.452C588.621 253.208 580.271 255.874 571.681 257.375C567.292 258.153 562.842 258.522 558.387 258.476C557.49 258.46 557.692 259.793 558.534 259.81C566.962 259.822 575.342 258.525 583.379 255.966C591.849 253.432 599.928 249.728 607.385 244.959C611.387 242.4 615.119 239.436 618.521 236.115C619.13 235.507 618.094 234.674 617.488 235.264L617.463 235.251Z" fill="#37474F"/>
<path d="M595.273 248.805C590.123 259.13 581.925 267.608 571.8 273.078C570.666 273.703 569.462 274.191 568.215 274.531C565.594 275.181 563.542 272.252 564.843 269.667C565.446 268.479 566.296 267.434 567.336 266.604C569.553 264.815 572.245 264.006 574.865 263.022C582.482 260.08 589.356 255.477 594.993 249.547" fill="#37474F"/>
<path d="M596.816 248.653L567.846 233.609C566.743 232.915 565.489 232.499 564.191 232.395C563.519 232.384 562.862 232.589 562.314 232.98C561.767 233.37 561.358 233.927 561.147 234.568C560.767 236.052 561.697 237.501 562.713 238.521C564.966 240.617 567.61 242.244 570.493 243.309C578.661 246.743 587.387 248.649 596.242 248.932" fill="#37474F"/>
<path d="M541.45 259.64C541.491 260.305 541.69 260.951 542.031 261.522C542.372 262.094 542.845 262.574 543.409 262.924C544.513 263.557 545.737 263.949 547.003 264.074C559.613 265.972 572.452 261.347 584.183 255.434L587.359 253.048C574.328 257.58 560.232 251.57 546.878 254.631C545.593 254.858 544.373 255.36 543.298 256.103C542.738 256.508 542.279 257.039 541.959 257.653C541.638 258.267 541.464 258.947 541.45 259.64Z" fill="#37474F"/>
<path d="M612.779 245.817C613.22 253.921 614.583 261.946 616.841 269.736C619.022 277.647 621.935 285.333 625.544 292.695C627.258 296.202 629.214 299.583 631.397 302.815C631.886 303.525 632.965 302.739 632.475 302.029C628.439 295.95 625.109 289.428 622.548 282.588C619.496 274.873 617.178 266.884 615.625 258.729C614.813 254.417 614.305 250.052 614.106 245.667C614.073 244.803 612.745 244.953 612.779 245.817Z" fill="#37474F"/>
<path d="M675.236 116.44C672.468 121.068 669.896 125.818 667.372 130.548C663.977 136.964 660.682 143.433 657.437 149.927C653.582 157.656 649.788 165.413 646.056 173.197C641.925 181.791 637.857 190.41 633.85 199.054C629.653 208.066 625.518 217.102 621.444 226.163C617.371 235.224 613.374 244.225 609.452 253.166C605.74 261.688 602.087 270.238 598.492 278.815C595.319 286.441 592.198 294.076 589.2 301.73C586.758 307.982 584.383 314.263 582.195 320.609C580.655 325.09 579.155 329.603 578.062 334.209C577.875 334.992 577.703 335.787 577.56 336.577C577.532 336.752 577.574 336.931 577.678 337.075C577.782 337.218 577.938 337.315 578.112 337.342C578.287 337.37 578.465 337.327 578.608 337.223C578.751 337.119 578.847 336.961 578.875 336.786C579.708 332.709 580.815 328.692 582.19 324.765C584.154 318.807 586.322 312.927 588.556 307.076C591.398 299.668 594.359 292.306 597.375 284.989C600.847 276.579 604.389 268.201 608.001 259.856C611.855 250.928 615.773 242.029 619.756 233.158C623.822 224.066 627.945 214.995 632.124 205.944C636.177 197.163 640.282 188.408 644.44 179.68C648.248 171.684 652.108 163.719 656.02 155.782C659.403 148.93 662.834 142.113 666.367 135.339C669.073 130.141 671.831 124.96 674.754 119.869C675.314 118.892 675.884 117.907 676.46 116.942C676.902 116.199 675.685 115.653 675.253 116.389L675.236 116.44Z" fill="#37474F"/>
<path d="M601.292 272.349C586.299 277.12 572.1 284.123 559.169 293.122C555.537 295.622 552.036 298.309 548.681 301.175C548.026 301.73 548.807 302.812 549.462 302.257C561.58 292.106 575.195 283.909 589.816 277.959C593.732 276.329 597.713 274.876 601.759 273.598C602.582 273.34 602.097 272.098 601.273 272.355L601.292 272.349Z" fill="#37474F"/>
<path d="M521.426 275.291C521.302 276.114 521.409 276.955 521.735 277.719C522.062 278.483 522.595 279.14 523.274 279.615C524.601 280.456 526.094 281.002 527.65 281.214L567.753 289.474L566.832 289.101C556.106 279.558 542.685 273.609 528.429 272.078C527.056 271.871 525.655 271.956 524.316 272.327C523.626 272.539 523 272.921 522.495 273.439C521.99 273.957 521.622 274.594 521.426 275.291Z" fill="#37474F"/>
<path d="M561.583 291.067C549.576 297.243 537.187 305.255 527.55 319.713C526.309 321.576 525.43 324.444 526.499 326.322C526.914 326.905 527.517 327.326 528.206 327.515C528.895 327.703 529.628 327.648 530.281 327.357C531.616 326.724 532.789 325.791 533.709 324.632C543.643 313.853 553.41 303.662 561.731 291.434" fill="#37474F"/>
<path d="M562.477 306.243C561.63 307.667 561.073 309.246 560.839 310.888C560.692 312.545 561.319 314.37 562.685 315.057C563.272 315.301 563.914 315.382 564.544 315.291C565.173 315.201 565.768 314.942 566.264 314.543C567.308 313.706 568.173 312.667 568.809 311.487C574.145 302.705 575.642 291.885 580.004 282.496L581.567 279.962C573.948 287.729 567.515 296.586 562.477 306.243Z" fill="#37474F"/>
<path d="M636.66 195.409C645.806 207.177 653.121 220.272 658.356 234.249C659.872 238.279 661.219 242.36 662.396 246.492C662.634 247.316 663.872 246.826 663.634 246.002C659.523 231.484 653.285 217.664 645.125 204.995C642.814 201.429 640.349 197.971 637.729 194.621C637.208 193.942 636.121 194.727 636.651 195.407L636.66 195.409Z" fill="#37474F"/>
<path d="M699.973 241.068C699.645 241.816 699.107 242.451 698.424 242.894C697.741 243.338 696.945 243.571 696.132 243.565C694.567 243.473 693.041 243.045 691.656 242.311L654.019 225.617L654.978 225.86C669.167 224.284 683.484 227.231 695.9 234.286C697.162 234.915 698.283 235.797 699.192 236.879C699.653 237.459 699.965 238.145 700.101 238.875C700.238 239.605 700.194 240.358 699.973 241.068Z" fill="#37474F"/>
<path d="M658.403 230.109C665.048 242.261 671.005 256.191 671.236 273.791C671.27 276.064 670.416 278.946 668.526 279.856C667.224 280.471 665.681 279.711 664.839 278.502C664.079 277.197 663.611 275.741 663.468 274.236C661.034 259.52 658.424 245.291 658.087 230.285" fill="#37474F"/>
<path d="M649.5 242.154C649.442 243.818 649.059 245.455 648.374 246.971C647.604 248.421 646.117 249.567 644.616 249.337C643.989 249.186 643.411 248.874 642.939 248.432C642.467 247.989 642.118 247.432 641.925 246.813C641.508 245.516 641.347 244.149 641.45 242.789C641.739 232.382 646.289 222.545 647.707 212.218L647.765 209.2C649.909 220.043 650.493 231.141 649.5 242.154Z" fill="#37474F"/>
<path d="M558.289 333.529C557.882 334.847 557.78 336.448 558.63 337.432C560.012 339.034 562.512 337.788 564.184 336.437C573.178 329.032 580.658 319.947 586.208 309.684L586.667 307.76C577.984 312.642 570.082 318.811 563.228 326.057C561.22 328.222 559.188 330.592 558.289 333.529Z" fill="#37474F"/>
<path d="M578.455 329.708C574.888 339.748 572.311 350.351 572.523 361C572.485 362.96 572.783 364.911 573.404 366.769C573.69 367.658 574.174 368.47 574.82 369.143C575.465 369.815 576.255 370.331 577.13 370.65C579.64 371.375 582.391 369.572 583.755 367.097C585.12 364.621 585.388 361.637 585.393 358.783C585.426 347.947 582.305 337.44 579.098 327.245" fill="#37474F"/>
<path d="M592.222 298.67C594.833 307.496 598.538 315.956 603.251 323.851C603.767 324.831 604.456 325.709 605.284 326.442C605.686 326.798 606.176 327.038 606.702 327.14C607.228 327.241 607.772 327.199 608.277 327.017C608.882 326.666 609.378 326.15 609.707 325.53C610.036 324.91 610.186 324.211 610.139 323.51C610.036 322.107 609.64 320.742 608.978 319.504C604.911 310.752 599.122 302.919 591.96 296.478" fill="#37474F"/>
<path d="M618.325 276.577C614.018 285.569 611.51 295.322 610.944 305.28C610.773 306.51 610.881 307.763 611.26 308.944C611.432 309.497 611.79 309.973 612.271 310.292C612.753 310.611 613.33 310.752 613.904 310.693C615.24 310.381 615.898 308.733 616.288 307.296C618.869 297.732 619.436 287.736 617.954 277.945" fill="#37474F"/>
<path d="M625.905 295.057C630.133 309.236 642.457 319.888 656.139 321.206C658.061 321.394 660.471 321.109 661.284 319.161C662.098 317.212 660.622 315.071 659.127 313.731C649.924 305.563 635.912 304.617 628.444 294.584" fill="#37474F"/>
<path d="M619.582 277.436C624.746 281.469 631.026 283.799 637.564 284.11C644.101 284.421 650.578 282.697 656.109 279.173C658.042 277.935 660.124 275.809 659.521 273.5C659.327 272.875 658.969 272.315 658.485 271.879C658 271.442 657.407 271.145 656.768 271.02C655.512 270.823 654.231 270.864 652.99 271.142L618.491 276.721" fill="#37474F"/>
<path d="M655.303 154.412C649.541 159.456 643.212 163.804 636.445 167.367C629.836 170.947 622.88 173.836 615.687 175.991C612.151 177.05 608.535 177.813 604.875 178.273C604.788 178.283 604.703 178.31 604.626 178.353C604.55 178.395 604.482 178.453 604.427 178.521C604.372 178.59 604.332 178.669 604.307 178.754C604.283 178.839 604.275 178.927 604.285 179.015C604.294 179.102 604.321 179.187 604.364 179.264C604.406 179.341 604.463 179.409 604.531 179.464C604.6 179.519 604.679 179.56 604.763 179.585C604.847 179.609 604.935 179.616 605.022 179.607C611.896 178.652 618.619 176.806 625.022 174.115C632.3 171.239 639.268 167.625 645.818 163.33C649.415 160.967 652.837 158.348 656.057 155.49C656.696 154.923 655.917 153.833 655.276 154.408L655.303 154.412Z" fill="#37474F"/>
<path d="M631.66 170.934C628.425 180.247 623.362 188.815 616.772 196.13C616.047 197.068 615.111 197.821 614.04 198.324C613.515 198.553 612.927 198.589 612.379 198.426C611.831 198.262 611.359 197.911 611.044 197.432C610.345 196.173 611.054 194.542 611.778 193.266C616.643 184.789 623.943 176.319 631.66 170.934Z" fill="#37474F"/>
<path d="M577.022 171.972C587.191 181.811 603.796 183.64 616.478 177.345L614.864 176.185C602.852 177.138 592.035 166.229 580.149 164.582C578.22 164.275 575.753 164.578 574.935 166.553C574.117 168.528 575.597 170.589 577.022 171.972Z" fill="#37474F"/>
<path d="M630.632 171.746C617.987 169.274 607.368 158.026 604.732 144.298C604.278 141.949 604.344 138.879 606.352 137.789C606.934 137.52 607.579 137.423 608.213 137.508C608.848 137.593 609.445 137.857 609.935 138.269C610.928 139.129 611.762 140.158 612.401 141.308C618.86 151.578 625.174 160.669 631.669 170.935" fill="#37474F"/>
<path d="M606.558 221.328C597.521 214.752 589.548 206.813 582.923 197.792C582.124 196.707 581.231 195.535 579.963 195.315C578.138 195.025 576.45 196.988 576.255 199.008C576.195 200.997 576.784 202.95 577.933 204.569C581.167 209.51 585.649 213.499 590.921 216.13C596.013 218.829 601.507 220.525 606.962 222.296" fill="#37474F"/>
<path d="M781.622 351.699C754.93 343.989 728.864 328.386 707.492 309.481C701.679 304.378 696.243 298.87 691.242 293.016C690.228 291.82 688.391 292.935 689.418 294.142C708.158 316.239 733.569 333.982 759.588 345.757C766.71 349.008 774.004 351.728 781.397 353.891C782.873 354.317 783.119 352.124 781.622 351.699Z" fill="#37474F"/>
<path d="M740.059 333.929C728.36 330.858 716.752 326.866 706.261 320.574C695.77 314.281 686.437 305.538 680.953 294.713C679.487 291.838 678.374 288.118 680.416 285.847C681.208 285.054 682.264 284.549 683.449 284.396C684.635 284.244 685.896 284.451 687.07 284.991C689.265 286.111 691.239 287.679 692.837 289.57C706.749 304.21 718.99 320.863 735.814 332.032" fill="#37474F"/>
<path d="M756.888 367.74C742.696 369.667 727.902 369.189 713.114 366.327C697.906 363.621 682.828 358.948 668.292 352.434C660.857 349.121 653.649 345.184 646.76 340.673C645.379 339.756 644.641 341.789 645.938 342.653C659.028 351.084 673.077 357.67 687.586 362.177C702.748 367.152 718.225 370.128 733.574 371.02C741.811 371.499 749.946 371.152 757.852 369.984C759.278 369.757 758.324 367.577 756.916 367.783L756.888 367.74Z" fill="#37474F"/>
<path d="M711.715 364.212C695.575 373.26 676.151 376.725 656.103 374.134C653.848 373.86 651.593 373.329 649.385 372.551C644.799 370.826 643.918 364.753 647.977 362.5C649.851 361.468 651.995 360.881 654.266 360.778C659.122 360.535 663.944 362.11 668.791 363.374C682.949 366.936 697.262 367.474 710.696 364.951" fill="#37474F"/>
<path d="M714.235 365.544L681.057 315.942C679.889 313.887 678.268 312.063 676.332 310.624C675.297 309.938 674.114 309.563 672.955 309.554C671.796 309.544 670.722 309.9 669.89 310.571C668.129 312.231 668.433 315.151 669.208 317.566C671.058 322.697 673.886 327.574 677.529 331.916C687.519 344.791 699.581 356.123 713.121 365.354" fill="#37474F"/>
<path d="M619.516 325.361C619.056 326.316 618.857 327.402 618.936 328.528C619.016 329.654 619.372 330.787 619.974 331.831C621.19 333.803 622.785 335.564 624.654 336.999C642.76 352.199 666.361 358.662 689.254 362.249L696.071 362.142C672.246 355.358 655.07 333.023 631.9 323.896C629.725 322.926 627.432 322.397 625.176 322.346C623.986 322.344 622.855 322.615 621.873 323.138C620.89 323.661 620.083 324.422 619.516 325.361Z" fill="#37474F"/>
<path d="M741.281 377.584C735.581 389.162 731.376 401.553 728.748 414.514C725.905 427.562 724.377 441.036 724.185 454.757C724.087 461.287 724.462 467.887 725.31 474.509C725.511 475.974 727.806 475.97 727.605 474.505C726.121 462.122 726.083 449.832 727.492 437.874C728.827 424.224 731.519 410.931 735.532 398.171C737.667 391.434 740.317 384.928 743.463 378.704C744.092 377.483 741.91 376.364 741.281 377.584Z" fill="#37474F"/>
<path d="M940.309 262.139C932.359 265.736 924.619 269.695 916.968 273.676C906.636 279.105 896.417 284.705 886.255 290.39C874.173 297.163 862.164 304.035 850.229 311.007C837.036 318.693 823.92 326.477 810.881 334.356C797.257 342.55 783.709 350.84 770.238 359.226C756.766 367.612 743.46 375.991 730.319 384.362C717.834 392.369 705.419 400.471 693.073 408.67C682.131 415.983 671.264 423.359 660.573 430.885C651.85 437.039 643.21 443.299 634.809 449.837C628.885 454.457 622.996 459.162 617.669 464.4C616.761 465.29 615.868 466.211 615.022 467.154C614.84 467.367 614.765 467.655 614.813 467.956C614.861 468.257 615.028 468.545 615.278 468.757C615.527 468.97 615.838 469.089 616.143 469.088C616.447 469.088 616.72 468.968 616.902 468.755C621.409 463.982 626.295 459.568 631.527 455.543C639.274 449.316 647.276 443.399 655.361 437.589C665.615 430.246 676.018 423.084 686.472 416.04C698.496 407.948 710.603 399.971 722.792 392.107C735.818 383.686 748.921 375.368 762.101 367.154C775.586 358.718 789.142 350.367 802.77 342.102C815.989 334.08 829.269 326.147 842.609 318.303C854.828 311.116 867.104 304.023 879.439 297.022C890.097 290.983 900.802 285.04 911.631 279.257C919.933 274.815 928.302 270.448 936.857 266.37C938.497 265.586 940.159 264.803 941.816 264.051C943.088 263.472 941.626 261.506 940.376 262.086L940.309 262.139Z" fill="#37474F"/>
<path d="M702.52 402.58C675.456 394.167 647.868 389.613 620.677 389.07C613.06 388.878 605.5 389.076 598.028 389.664C596.572 389.773 596.934 392.04 598.389 391.931C625.225 390.08 652.846 392.408 680.262 398.831C687.633 400.501 694.966 402.478 702.262 404.762C703.745 405.23 703.969 403.037 702.486 402.569L702.52 402.58Z" fill="#37474F"/>
<path d="M576.058 326.878C575.217 327.884 574.721 329.147 574.626 330.523C574.532 331.899 574.843 333.333 575.524 334.665C576.924 337.147 578.814 339.387 581.066 341.233L636.894 392.625L635.756 391.194C626.603 367.369 610.428 345.791 589.476 329.454C587.505 327.798 585.26 326.516 582.887 325.69C581.647 325.292 580.372 325.192 579.179 325.4C577.986 325.608 576.913 326.116 576.058 326.878Z" fill="#37474F"/>
<path d="M626.047 388.654C602.518 385.154 576.948 383.795 550.575 394.043C547.179 395.364 543.552 398.429 543.733 402.076C543.92 403.292 544.525 404.473 545.447 405.42C546.369 406.367 547.552 407.022 548.797 407.276C551.371 407.738 553.928 407.627 556.273 406.953C580.207 402.057 603.42 397.804 625.989 389.307" fill="#37474F"/>
<path d="M615.48 410.404C613.04 411.516 610.931 413.13 609.273 415.153C607.74 417.284 607.276 420.418 608.857 422.726C609.578 423.647 610.512 424.4 611.562 424.904C612.612 425.408 613.739 425.646 614.826 425.593C617.108 425.484 619.272 424.921 621.19 423.935C636.404 417.193 647.256 403.816 661.434 395.269L665.86 393.347C647.898 396.414 630.92 402.162 615.48 410.404Z" fill="#37474F"/>
<path d="M818.121 332.151C823.065 357.456 824.117 382.758 821.241 407.193C820.424 414.246 819.302 421.2 817.875 428.055C817.595 429.424 819.905 429.987 820.185 428.618C825.234 404.56 826.427 379.338 823.726 353.778C822.944 346.571 821.837 339.357 820.404 332.137C820.129 330.682 817.821 330.676 818.109 332.14L818.121 332.151Z" fill="#37474F"/>
<path d="M824.576 401.552C825.33 424.887 823.614 449.981 810.104 474.399C808.366 477.557 804.767 480.664 801.114 480.029C798.604 479.573 796.806 476.988 796.45 474.486C796.296 471.934 796.716 469.466 797.679 467.254C805.492 444.599 812.647 422.438 823.947 401.478" fill="#37474F"/>
<path d="M801.246 409.216C799.845 411.445 797.961 413.312 795.7 414.712C793.361 415.935 790.148 416.026 787.996 414.212C787.139 413.377 786.487 412.371 786.102 411.292C785.717 410.213 785.614 409.098 785.801 408.055C786.175 405.856 787.001 403.817 788.233 402.051C796.883 388.036 811.707 379.06 822.048 366.283L824.515 362.194C819.305 379.236 811.469 395.072 801.246 409.216Z" fill="#37474F"/>
<path d="M587.469 443.724C585.798 445.128 584.378 447.226 584.924 449.429C585.809 453.01 590.678 453.793 594.341 453.605C614.155 452.41 632.941 447.391 649.656 438.828L651.885 436.643C634.541 434.683 617.398 435.271 601.033 438.386C596.206 439.356 591.181 440.584 587.469 443.724Z" fill="#37474F"/>
<path d="M621.825 458.607C608.371 468.844 596.01 480.843 587.949 495.691C586.346 498.346 585.271 501.326 584.772 504.498C584.515 506.006 584.628 507.605 585.102 509.174C585.575 510.743 586.397 512.24 587.505 513.552C590.836 517.055 596.532 517.323 600.604 515.284C604.676 513.245 607.444 509.412 609.7 505.494C618.29 490.635 621.717 473.078 624.766 455.865" fill="#37474F"/>
<path d="M667.683 429.697C664.787 444.434 663.88 459.76 664.984 475.316C665.013 477.178 665.392 479.073 666.103 480.907C666.447 481.797 667.018 482.617 667.757 483.282C668.495 483.946 669.374 484.431 670.301 484.686C671.52 484.807 672.695 484.594 673.696 484.071C674.696 483.547 675.48 482.735 675.959 481.725C676.904 479.694 677.365 477.423 677.311 475.06C677.886 458.971 675.059 442.426 669.002 426.422" fill="#37474F"/>
<path d="M725.665 425.396C711.884 433.455 700.302 444.354 691.575 457.474C690.34 458.995 689.521 460.824 689.179 462.826C689.011 463.758 689.191 464.769 689.689 465.688C690.187 466.607 690.972 467.378 691.912 467.87C694.233 468.775 696.554 467.167 698.294 465.581C709.841 455.014 718.6 441.842 724.01 426.907" fill="#37474F"/>
<path d="M722.886 458.363C718.285 482.071 729.048 509.016 749.277 524.49C752.115 526.667 756.086 528.682 758.886 526.816C761.686 524.95 761.079 520.534 759.811 517.199C751.942 496.785 730.907 481.494 727.205 460.249" fill="#37474F"/>
<path d="M726.941 427.833C731.791 438.531 739.716 448.005 749.633 454.96C759.551 461.915 770.977 466.012 782.351 466.691C786.33 466.92 791.243 466.078 792.124 462.301C792.315 461.249 792.2 460.122 791.791 459.039C791.382 457.955 790.694 456.955 789.799 456.144C788.003 454.62 785.978 453.397 783.831 452.539L725.809 425.76" fill="#37474F"/>
<path d="M879.403 294.423C866.474 295.601 853.21 295.257 839.883 293.398C826.79 291.719 813.701 288.745 800.821 284.523C794.491 282.449 788.269 279.887 782.217 276.864C782.074 276.791 781.922 276.743 781.769 276.725C781.616 276.707 781.465 276.718 781.326 276.758C781.186 276.798 781.061 276.866 780.956 276.958C780.851 277.05 780.77 277.164 780.716 277.294C780.662 277.424 780.637 277.568 780.642 277.716C780.647 277.864 780.682 278.014 780.745 278.158C780.808 278.302 780.898 278.437 781.01 278.555C781.121 278.672 781.253 278.771 781.396 278.844C792.832 284.395 804.736 288.571 816.81 291.266C830.39 294.58 844.068 296.571 857.635 297.208C865.086 297.553 872.469 297.369 879.727 296.658C881.167 296.516 880.815 294.239 879.366 294.391L879.403 294.423Z" fill="#37474F"/>
<path d="M829.636 293.522C817.269 303.091 802.648 309.811 786.639 313.284C784.773 313.851 782.725 313.949 780.664 313.572C779.668 313.363 778.726 312.825 778.003 312.054C777.28 311.282 776.822 310.327 776.71 309.354C776.615 306.927 779.002 305.393 781.134 304.363C795.375 297.569 813.396 293.218 829.636 293.522Z" fill="#37474F"/>
<path d="M743.889 240.394C751.943 264.07 776.312 283.163 800.984 287.175L799.39 283.969C779.968 273.285 771.75 247.491 754.572 233.36C751.815 231.011 747.741 228.965 744.914 230.863C742.086 232.76 742.763 237.069 743.889 240.394Z" fill="#37474F"/>
<path d="M827.397 293.612C809.69 277.588 802.046 251.526 808.766 230.028C809.911 226.347 812.433 222.193 816.413 222.7C817.529 222.912 818.609 223.422 819.528 224.172C820.447 224.922 821.167 225.881 821.605 226.937C822.47 229.111 822.957 231.358 823.043 233.577C824.99 254.14 827.642 272.938 829.648 293.533" fill="#37474F"/>
<path d="M750.908 337.718C742.042 319.655 735.905 300.784 732.715 281.77C732.328 279.482 731.864 276.98 730.065 275.411C727.459 273.191 723.288 274.203 721.393 276.784C719.732 279.458 719.109 282.73 719.619 286.103C720.752 296.122 724.575 306.08 730.698 314.961C736.486 323.753 743.69 331.57 750.773 339.451" fill="#37474F"/>
<path d="M816.884 610.161C806.215 600.606 796.986 589.033 789.577 575.919C781.776 562.587 775.557 548.078 771.091 532.788C768.792 524.98 767.116 516.94 766.082 508.77C765.885 507.124 763.859 507.881 764.042 509.429C766.112 524.861 770.207 539.826 776.184 553.794C782.227 568.562 789.997 582.275 799.27 594.538C804.247 601.12 809.786 607.088 815.801 612.35C816.898 613.288 817.939 611.148 816.87 610.21L816.884 610.161Z" fill="#37474F"/>
<path d="M790.28 573.483C772.927 567.062 757.694 554.522 746.668 537.579C745.414 535.685 744.356 533.624 743.516 531.439C741.856 526.829 745.908 522.22 750.255 523.849C752.255 524.607 754.093 525.859 755.643 527.521C758.978 531.06 760.905 535.752 763.086 540.262C769.555 553.35 778.425 564.595 789.056 573.187" fill="#37474F"/>
<path d="M790.899 576.265L807.148 518.845C807.956 516.623 808.294 514.206 808.133 511.799C807.985 510.567 807.503 509.423 806.759 508.534C806.015 507.646 805.047 507.059 803.997 506.861C801.591 506.597 799.566 508.721 798.229 510.877C795.523 515.613 793.644 520.928 792.7 526.516C789.376 542.47 788.57 559.001 790.322 575.294" fill="#37474F"/>
<path d="M760.075 478.101C759.049 478.37 758.093 478.923 757.288 479.713C756.482 480.504 755.851 481.509 755.446 482.645C754.734 484.849 754.427 487.206 754.546 489.559C754.715 513.198 765.097 535.356 777.21 555.111L781.712 560.231C771.428 537.694 777.295 510.136 769.219 486.579C768.548 484.294 767.464 482.205 766.04 480.455C765.27 479.548 764.33 478.862 763.295 478.454C762.26 478.045 761.157 477.924 760.075 478.101Z" fill="#37474F"/>
<path d="M799.27 604.662C786.76 607.83 774.6 612.663 763.029 619.067C751.252 625.362 740.004 632.935 729.433 641.686C724.398 645.845 719.618 650.411 715.126 655.349C714.141 656.452 715.632 658.197 716.617 657.094C725.082 647.935 734.414 639.938 744.431 633.257C755.688 625.423 767.554 618.852 779.869 613.634C786.383 610.891 793.054 608.691 799.833 607.049C801.169 606.736 800.607 604.349 799.27 604.662Z" fill="#37474F"/>
<path d="M1016.21 681.327C1008.32 677.606 1000.28 674.281 992.291 671.038C981.459 666.692 970.57 662.543 959.652 658.494C946.662 653.687 933.644 649 920.598 644.435C906.192 639.376 891.762 634.437 877.309 629.619C862.237 624.56 847.141 619.621 832.022 614.803C816.903 609.985 801.896 605.288 787.002 600.711C772.812 596.398 758.593 592.201 744.346 588.118C731.685 584.529 719.023 581.039 706.361 577.78C696.021 575.129 685.652 572.611 675.227 570.454C667.869 568.939 660.469 567.507 653.027 566.849C651.761 566.734 650.481 566.651 649.214 566.618C648.934 566.618 648.666 566.748 648.468 566.98C648.27 567.211 648.159 567.526 648.159 567.853C648.159 568.18 648.27 568.494 648.468 568.726C648.666 568.958 648.934 569.088 649.214 569.088C655.77 569.424 662.299 570.282 668.756 571.656C678.519 573.516 688.213 575.771 697.878 578.158C710.117 581.204 722.315 584.48 734.456 587.871C748.412 591.778 762.335 595.822 776.226 600.004C791.082 604.459 805.911 609.041 820.711 613.749C835.877 618.545 851.024 623.451 866.152 628.467C880.831 633.328 895.481 638.295 910.103 643.365C923.496 648.007 936.856 652.754 950.184 657.605C961.692 661.803 973.158 666.099 984.582 670.593C993.347 674.034 1002.1 677.573 1010.75 681.442C1012.41 682.183 1014.08 682.94 1015.73 683.714C1017 684.306 1017.54 681.919 1016.29 681.343L1016.21 681.327Z" fill="#37474F"/>
<path d="M755.109 591.361C743.965 565.302 729.544 541.346 712.326 520.294C707.534 514.371 702.481 508.744 697.188 503.436C696.161 502.399 694.67 504.144 695.697 505.181C714.506 524.412 730.643 546.949 743.53 571.985C747.038 578.679 750.288 585.544 753.28 592.579C753.885 594.011 755.7 592.76 755.095 591.328L755.109 591.361Z" fill="#37474F"/>
<path d="M730.742 446C729.43 446.012 728.147 446.453 727.039 447.274C725.93 448.094 725.039 449.261 724.467 450.642C723.486 453.318 723.006 456.209 723.06 459.12L720.134 534.945L720.486 533.151C732.689 510.734 738.629 484.43 737.481 457.886C737.463 455.312 736.984 452.771 736.074 450.428C735.573 449.227 734.822 448.192 733.891 447.418C732.959 446.644 731.876 446.157 730.742 446Z" fill="#37474F"/>
<path d="M716.125 524.113C703.533 503.93 687.987 483.583 663.086 470.15C659.878 468.421 655.193 467.648 652.534 470.15C651.729 471.08 651.223 472.307 651.1 473.623C650.977 474.939 651.245 476.265 651.859 477.377C653.176 479.636 654.918 481.511 656.952 482.859C676.198 497.905 694.487 512.82 715.59 524.491" fill="#37474F"/>
<path d="M692.714 530.171C690.287 529.034 687.69 528.475 685.075 528.525C682.458 528.739 679.771 530.418 679.04 533.118C678.805 534.264 678.839 535.463 679.136 536.59C679.433 537.716 679.982 538.728 680.728 539.521C682.29 541.188 684.122 542.47 686.116 543.291C701.113 550.502 718.333 550.09 734.034 555.342L738.367 557.465C724.385 545.779 709 536.581 692.714 530.171Z" fill="#37474F"/>
<path d="M835.032 683.615C817.756 699.32 797.54 714.284 770.19 719.832C766.659 720.556 761.96 719.832 760.075 716.638C758.795 714.432 759.597 711.387 761.271 709.493C763.114 707.722 765.265 706.441 767.574 705.74C789.886 696.999 811.397 688.076 834.681 683.088" fill="#37474F"/>
<path d="M814.07 670.824C811.465 671.202 808.822 670.979 806.29 670.165C803.842 669.177 801.69 666.79 801.676 663.975C801.756 662.782 802.098 661.633 802.67 660.641C803.242 659.648 804.024 658.846 804.94 658.312C806.856 657.172 808.945 656.478 811.088 656.271C827.365 653.769 843.811 659.234 860.243 658.823L864.956 658.049C848.604 665.133 831.467 669.435 814.07 670.824Z" fill="#37474F"/>
<path d="M649.186 530.451C647.034 530.089 644.515 530.368 643.193 532.212C641.04 535.208 643.601 539.423 646.119 542.09C659.877 556.399 675.878 567.446 693.235 574.619L696.344 574.899C686.591 560.425 675.027 547.754 662.045 537.316C658.176 534.27 653.983 531.241 649.186 530.451Z" fill="#37474F"/>
<path d="M660.132 566.256C643.615 562.651 626.465 561.021 609.935 564.511C606.873 565.013 603.909 566.126 601.17 567.804C599.856 568.586 598.711 569.709 597.824 571.087C596.937 572.464 596.33 574.061 596.049 575.755C595.543 580.562 599.032 585.072 603.224 586.85C607.416 588.628 612.129 588.25 616.575 587.426C633.457 584.332 649.045 575.557 664.127 566.717" fill="#37474F"/>
<path d="M711.876 582.422C698.779 589.773 686.523 599.02 675.396 609.947C673.997 611.177 672.8 612.694 671.865 614.424C671.41 615.264 671.156 616.23 671.129 617.223C671.102 618.216 671.303 619.199 671.71 620.071C672.408 621.077 673.333 621.834 674.38 622.256C675.426 622.677 676.554 622.748 677.633 622.458C679.792 621.861 681.819 620.739 683.584 619.165C696.205 609.171 706.968 596.291 715.224 581.302" fill="#37474F"/>
<path d="M752.745 623.775C737.675 618.509 721.867 616.759 706.22 618.622C704.262 618.668 702.339 619.231 700.593 620.268C699.774 620.745 699.121 621.537 698.744 622.512C698.367 623.487 698.29 624.585 698.525 625.619C699.341 627.973 702.07 628.697 704.405 628.993C719.937 630.933 735.644 629.06 750.522 623.495" fill="#37474F"/>
<path d="M725.846 643.036C704.814 654.905 691.28 680.569 692.616 706.004C692.799 709.576 693.84 713.905 697.076 714.827C700.312 715.749 703.28 712.424 704.996 709.296C715.435 690.068 713.438 664.14 727.211 647.546" fill="#37474F"/>
<path d="M751.718 626.327C746.718 636.956 744.644 649.131 745.78 661.191C746.916 673.251 751.205 684.606 758.063 693.706C760.469 696.883 764.296 700.077 767.742 698.299C768.667 697.763 769.45 696.945 770.01 695.93C770.57 694.916 770.885 693.744 770.922 692.537C770.917 690.182 770.536 687.848 769.796 685.656L752.562 624.121" fill="#37474F"/>
<path d="M904.197 668.79C890.005 670.717 875.21 670.239 860.423 667.377C845.215 664.671 830.137 659.998 815.601 653.484C808.166 650.171 800.958 646.234 794.069 641.723C792.688 640.806 791.95 642.839 793.247 643.703C806.337 652.134 820.386 658.72 834.895 663.227C850.057 668.202 865.534 671.178 880.883 672.07C889.12 672.549 897.255 672.202 905.161 671.034C906.587 670.807 905.633 668.627 904.225 668.833L904.197 668.79Z" fill="#37474F"/>
<path d="M859.024 665.261C842.884 674.309 823.46 677.775 803.412 675.183C801.157 674.91 798.902 674.378 796.694 673.601C792.108 671.876 791.226 665.803 795.286 663.55C797.16 662.518 799.304 661.931 801.575 661.828C806.431 661.585 811.252 663.16 816.1 664.424C830.258 667.985 844.571 668.524 858.005 666.001" fill="#37474F"/>
<path d="M766.825 626.411C766.364 627.366 766.166 628.452 766.245 629.578C766.325 630.704 766.681 631.836 767.283 632.881C768.499 634.853 770.094 636.614 771.963 638.049C790.069 653.249 813.67 659.712 836.563 663.299L843.38 663.191C819.555 656.408 802.379 634.073 779.209 624.946C777.034 623.976 774.741 623.447 772.485 623.396C771.295 623.394 770.164 623.665 769.182 624.188C768.199 624.711 767.392 625.472 766.825 626.411Z" fill="#37474F"/>
<path d="M1087.62 563.189C1079.67 566.786 1071.93 570.745 1064.28 574.726C1053.94 580.155 1043.73 585.755 1033.56 591.44C1021.48 598.213 1009.47 605.085 997.538 612.057C984.345 619.743 971.229 627.526 958.19 635.406C944.566 643.6 931.018 651.89 917.547 660.276C904.075 668.662 890.769 677.041 877.628 685.412C865.143 693.419 852.728 701.521 840.382 709.72C829.44 717.033 818.573 724.409 807.882 731.935C799.159 738.089 790.519 744.349 782.118 750.887C776.194 755.507 770.305 760.212 764.978 765.45C764.07 766.34 763.177 767.261 762.331 768.204C762.149 768.417 762.074 768.705 762.122 769.006C762.17 769.307 762.337 769.595 762.587 769.807C762.836 770.02 763.147 770.139 763.452 770.138C763.756 770.138 764.029 770.018 764.211 769.805C768.718 765.032 773.604 760.618 778.836 756.593C786.583 750.366 794.585 744.449 802.67 738.639C812.924 731.295 823.327 724.134 833.781 717.09C845.805 708.998 857.912 701.021 870.101 693.157C883.127 684.736 896.229 676.418 909.41 668.204C922.895 659.768 936.451 651.417 950.079 643.152C963.298 635.13 976.577 627.197 989.918 619.353C1002.14 612.166 1014.41 605.073 1026.75 598.072C1037.41 592.033 1048.11 586.09 1058.94 580.307C1067.24 575.865 1075.61 571.498 1084.17 567.42C1085.81 566.636 1087.47 565.853 1089.12 565.101C1090.4 564.522 1088.94 562.556 1087.68 563.136L1087.62 563.189Z" fill="#37474F"/>
<path d="M849.829 703.63C822.765 695.217 795.177 690.663 767.986 690.12C760.369 689.927 752.809 690.126 745.337 690.714C743.881 690.823 744.243 693.09 745.698 692.981C772.534 691.13 800.155 693.458 827.571 699.881C834.942 701.551 842.275 703.528 849.571 705.812C851.053 706.28 851.278 704.087 849.795 703.619L849.829 703.63Z" fill="#37474F"/>
<path d="M723.367 627.928C722.526 628.934 722.03 630.197 721.935 631.573C721.841 632.949 722.152 634.383 722.833 635.714C724.233 638.197 726.123 640.437 728.375 642.283L784.203 693.675L783.065 692.244C773.912 668.419 757.737 646.841 736.785 630.504C734.814 628.848 732.569 627.566 730.195 626.74C728.956 626.342 727.681 626.242 726.488 626.45C725.295 626.657 724.222 627.166 723.367 627.928Z" fill="#37474F"/>
<path d="M773.356 689.704C749.827 686.204 724.257 684.845 697.884 695.093C694.488 696.414 690.861 699.479 691.042 703.126C691.229 704.342 691.834 705.523 692.756 706.47C693.678 707.417 694.861 708.072 696.106 708.326C698.68 708.788 701.237 708.677 703.582 708.003C727.516 703.107 750.729 698.854 773.298 690.357" fill="#37474F"/>
<path d="M762.789 711.454C760.349 712.566 758.24 714.18 756.582 716.203C755.049 718.334 754.585 721.468 756.166 723.776C756.887 724.697 757.821 725.45 758.871 725.954C759.921 726.458 761.048 726.696 762.135 726.643C764.417 726.534 766.581 725.971 768.499 724.985C783.713 718.243 794.565 704.867 808.743 696.319L813.169 694.397C795.207 697.464 778.229 703.212 762.789 711.454Z" fill="#37474F"/>
<path d="M734.778 744.774C733.107 746.178 731.687 748.276 732.233 750.479C733.118 754.06 737.987 754.843 741.65 754.655C761.464 753.46 780.25 748.441 796.965 739.878L799.194 737.693C781.85 735.733 764.707 736.321 748.342 739.436C743.515 740.406 738.49 741.634 734.778 744.774Z" fill="#37474F"/>
<path d="M769.134 759.658C755.68 769.894 743.319 781.893 735.257 796.741C733.654 799.397 732.58 802.376 732.081 805.548C731.824 807.056 731.937 808.655 732.411 810.224C732.884 811.793 733.706 813.29 734.814 814.602C738.145 818.105 743.841 818.373 747.913 816.334C751.985 814.295 754.753 810.462 757.009 806.544C765.599 791.685 769.026 774.128 772.075 756.915" fill="#37474F"/>
<path d="M814.992 730.747C812.096 745.484 811.189 760.81 812.293 776.366C812.322 778.228 812.701 780.123 813.412 781.957C813.756 782.847 814.327 783.667 815.066 784.332C815.804 784.996 816.682 785.481 817.61 785.736C818.828 785.857 820.004 785.644 821.004 785.121C822.005 784.597 822.789 783.785 823.268 782.775C824.213 780.744 824.674 778.473 824.62 776.11C825.195 760.021 822.368 743.476 816.311 727.472" fill="#37474F"/>
</svg>
